%TF.GenerationSoftware,KiCad,Pcbnew,9.0.4*%
%TF.CreationDate,2025-09-24T09:57:46+10:00*%
%TF.ProjectId,LattePandaMu_carrier_custom,4c617474-6550-4616-9e64-614d755f6361,2*%
%TF.SameCoordinates,Original*%
%TF.FileFunction,Plated,1,4,PTH,Mixed*%
%TF.FilePolarity,Positive*%
%FSLAX46Y46*%
G04 Gerber Fmt 4.6, Leading zero omitted, Abs format (unit mm)*
G04 Created by KiCad (PCBNEW 9.0.4) date 2025-09-24 09:57:46*
%MOMM*%
%LPD*%
G01*
G04 APERTURE LIST*
%TA.AperFunction,ViaDrill*%
%ADD10C,0.200000*%
%TD*%
%TA.AperFunction,ComponentDrill*%
%ADD11C,0.500000*%
%TD*%
G04 aperture for slot hole*
%TA.AperFunction,ComponentDrill*%
%ADD12C,0.600000*%
%TD*%
%TA.AperFunction,ComponentDrill*%
%ADD13C,0.700000*%
%TD*%
%TA.AperFunction,ComponentDrill*%
%ADD14C,0.750000*%
%TD*%
G04 aperture for slot hole*
%TA.AperFunction,ComponentDrill*%
%ADD15C,0.800000*%
%TD*%
%TA.AperFunction,ComponentDrill*%
%ADD16C,0.900000*%
%TD*%
G04 aperture for slot hole*
%TA.AperFunction,ComponentDrill*%
%ADD17C,0.900000*%
%TD*%
%TA.AperFunction,ComponentDrill*%
%ADD18C,0.920000*%
%TD*%
%TA.AperFunction,ComponentDrill*%
%ADD19C,1.000000*%
%TD*%
%TA.AperFunction,ComponentDrill*%
%ADD20C,1.400000*%
%TD*%
%TA.AperFunction,ComponentDrill*%
%ADD21C,1.500000*%
%TD*%
%TA.AperFunction,ComponentDrill*%
%ADD22C,2.300000*%
%TD*%
%TA.AperFunction,ComponentDrill*%
%ADD23C,3.050000*%
%TD*%
%TA.AperFunction,ComponentDrill*%
%ADD24C,3.200000*%
%TD*%
G04 APERTURE END LIST*
D10*
X63366161Y-131384333D03*
X63426566Y-122069509D03*
X64083464Y-131156454D03*
X64157150Y-121570260D03*
X64724334Y-121570260D03*
X64802730Y-131156454D03*
X65484602Y-121570260D03*
X65630722Y-131156454D03*
X66293142Y-121570260D03*
X66375079Y-131156454D03*
X66932732Y-121570260D03*
X67194707Y-131156454D03*
X67572323Y-121570260D03*
X68123062Y-131156454D03*
X68742895Y-121570260D03*
X69143416Y-131156454D03*
X69418689Y-121570260D03*
X69863990Y-122004828D03*
X69999234Y-131170546D03*
X70473222Y-123994801D03*
X70667137Y-124435838D03*
X70898097Y-133382926D03*
X76900000Y-137400000D03*
X77000000Y-135900000D03*
X79814791Y-139477342D03*
X79814791Y-140737131D03*
X79814791Y-141853626D03*
X80065555Y-133488867D03*
X80077496Y-134306834D03*
X80561111Y-142002890D03*
X80686493Y-140522191D03*
X81062639Y-133053016D03*
X81062639Y-134002335D03*
X81062639Y-134671038D03*
X81098462Y-138886256D03*
X81414902Y-140850572D03*
X81414902Y-141949155D03*
X81946282Y-140522191D03*
X82125399Y-133488867D03*
X82125399Y-134306834D03*
X82274663Y-138886256D03*
X82672013Y-140240733D03*
X82672013Y-141304334D03*
X85520000Y-117100000D03*
X85550000Y-116030000D03*
X85590000Y-115200000D03*
X85780000Y-90160000D03*
X85800000Y-90850000D03*
X85800000Y-91600000D03*
X85800000Y-92350000D03*
X85870000Y-98540000D03*
X85880000Y-99130000D03*
X85900000Y-97250000D03*
X85900000Y-97900000D03*
X86270000Y-117260000D03*
X86400000Y-84700000D03*
X86410000Y-116100000D03*
X86500000Y-113150000D03*
X86530000Y-115190000D03*
X86700000Y-72000000D03*
X86800000Y-74200000D03*
X86900000Y-90150000D03*
X86900000Y-90950000D03*
X86900000Y-91650000D03*
X86900000Y-92400000D03*
X86900000Y-97900000D03*
X86900000Y-98550000D03*
X86900000Y-99150000D03*
X86930000Y-97250000D03*
X87000000Y-109800000D03*
X87040000Y-117260000D03*
X87050000Y-111280000D03*
X87600000Y-92400000D03*
X88650000Y-71480000D03*
X88650000Y-74790000D03*
X88650000Y-85144590D03*
X88650000Y-88127668D03*
X88650000Y-89320000D03*
X88650000Y-92350000D03*
X88650000Y-95410171D03*
X88650000Y-96900000D03*
X88650000Y-99960000D03*
X88650000Y-100980000D03*
X88650000Y-101540000D03*
X88650000Y-102110000D03*
X88650000Y-114700000D03*
X88650000Y-117510000D03*
X88700000Y-100450000D03*
X92800000Y-129000000D03*
X93000000Y-126300000D03*
X93140000Y-76960000D03*
X93375597Y-129200000D03*
X93874403Y-129200000D03*
X94100000Y-85700000D03*
X94100000Y-110000000D03*
X94850000Y-93370000D03*
X95200000Y-110700000D03*
X95500000Y-86700000D03*
X96850000Y-98450000D03*
X96850000Y-99190000D03*
X96850000Y-100010000D03*
X96850000Y-100770000D03*
X96850000Y-101580000D03*
X96850000Y-102380000D03*
X96850000Y-103180000D03*
X96850000Y-103960000D03*
X96850000Y-104760000D03*
X96850000Y-105580000D03*
X96850000Y-106340000D03*
X96850000Y-107200000D03*
X96850000Y-107910000D03*
X96850000Y-108600000D03*
X96850000Y-109240000D03*
X96850000Y-109800000D03*
X96850000Y-110500000D03*
X96870000Y-111220000D03*
X97050000Y-115650000D03*
X97150000Y-81430000D03*
X97150000Y-82060000D03*
X97150000Y-82810000D03*
X97150000Y-83510000D03*
X97150000Y-84180000D03*
X97150000Y-84900000D03*
X97150000Y-88190000D03*
X97150000Y-89030000D03*
X97150000Y-89780000D03*
X97150000Y-90450000D03*
X97160000Y-97725000D03*
X97175000Y-87275000D03*
X97200597Y-129500000D03*
X97295000Y-116145000D03*
X97300000Y-73100000D03*
X97320000Y-111670000D03*
X97390000Y-115225000D03*
X97400000Y-74100000D03*
X97470000Y-91270000D03*
X97550000Y-115725000D03*
X97630000Y-86820000D03*
X97699403Y-129500000D03*
X98200000Y-126100000D03*
X98200000Y-129100000D03*
X100500000Y-126100000D03*
X100500000Y-127375597D03*
X100500000Y-127874403D03*
X100500000Y-129400000D03*
X103374542Y-110596385D03*
X103412038Y-111335063D03*
X104000000Y-85900000D03*
X104457998Y-108066634D03*
X104718457Y-108511595D03*
X105200000Y-139200000D03*
X105300000Y-99400000D03*
X105670000Y-97530000D03*
X105800000Y-144800000D03*
X105930000Y-100230000D03*
X106000000Y-96440000D03*
X106050000Y-65250000D03*
X106223645Y-142023645D03*
X106400000Y-57370000D03*
X106576355Y-142376355D03*
X106810000Y-61880000D03*
X107568366Y-111464903D03*
X107568366Y-111963709D03*
X108960000Y-57390000D03*
X109020000Y-61830000D03*
X109180000Y-65220000D03*
X110300000Y-60100000D03*
X110574944Y-61193323D03*
X111220362Y-57114891D03*
X111415127Y-104533077D03*
X111700000Y-58700000D03*
X112010721Y-72040466D03*
X112071064Y-104484556D03*
X112244210Y-71197615D03*
X112457320Y-80668484D03*
X112618800Y-116480001D03*
X113067082Y-90096113D03*
X113125000Y-116890097D03*
X113740000Y-116380000D03*
X113800000Y-67550000D03*
X114100000Y-104300000D03*
X114510000Y-107990000D03*
X114650692Y-116534885D03*
X114700000Y-119500000D03*
X114776600Y-68900000D03*
X114800000Y-104400000D03*
X115149403Y-116525000D03*
X115200000Y-119500000D03*
X115620000Y-116060000D03*
X115966272Y-120283815D03*
X116000000Y-109500000D03*
X116208872Y-81955112D03*
X116400000Y-108040000D03*
X116498809Y-109500000D03*
X116634371Y-120312231D03*
X116750000Y-81700000D03*
X117300000Y-130700000D03*
X117300000Y-131450000D03*
X117400000Y-129900000D03*
X117454781Y-117576554D03*
X117750000Y-83450000D03*
X117863855Y-117111145D03*
X117910000Y-116250000D03*
X117930000Y-107950000D03*
X118023645Y-109976355D03*
X118250000Y-83200000D03*
X118376355Y-109623645D03*
X118450597Y-119300000D03*
X118752430Y-109060798D03*
X118810345Y-125995159D03*
X118949403Y-119300000D03*
X118993516Y-125156801D03*
X119214771Y-108653662D03*
X119260000Y-112910000D03*
X119480000Y-104840000D03*
X119930000Y-112910000D03*
X120270000Y-116340000D03*
X120925000Y-133790000D03*
X120940000Y-107990000D03*
X121700000Y-124900000D03*
X121700000Y-125800000D03*
X121750000Y-116330000D03*
X121950000Y-133650000D03*
X122340000Y-107940000D03*
X122352677Y-123249678D03*
X122400000Y-125000000D03*
X122700000Y-128300000D03*
X123090306Y-123741431D03*
X123220000Y-116430000D03*
X123531766Y-123294383D03*
X123810000Y-107960000D03*
X124570000Y-116420000D03*
X124798957Y-121569669D03*
X124800000Y-129100000D03*
X125043720Y-120280062D03*
X125100000Y-133000000D03*
X125542526Y-120280062D03*
X125600000Y-125200000D03*
X125940000Y-108560000D03*
X126200000Y-116520000D03*
X126571073Y-103456103D03*
X126584955Y-104171078D03*
X126900000Y-107870000D03*
X127155908Y-123755594D03*
X127400000Y-126100000D03*
X127468486Y-73921765D03*
X127530000Y-116610000D03*
X128050000Y-73900000D03*
X128660000Y-107800000D03*
X128700000Y-112350597D03*
X128700000Y-112849403D03*
X129000000Y-126000000D03*
X129154074Y-109794199D03*
X129173798Y-109168041D03*
X129260000Y-116360000D03*
X129264851Y-119398842D03*
X129550000Y-125950000D03*
X129763112Y-119375486D03*
X129790000Y-108030000D03*
X130280000Y-121910000D03*
X130280000Y-122520000D03*
X130288097Y-116800000D03*
X130420000Y-123060000D03*
X130500000Y-93500000D03*
X130531216Y-85333593D03*
X130786903Y-116800000D03*
X130990000Y-122530000D03*
X131030000Y-121910000D03*
X131053665Y-84800493D03*
X131100000Y-110100000D03*
X131270000Y-112970000D03*
X131340000Y-123080000D03*
X131475000Y-126100000D03*
X131713719Y-119436281D03*
X131760000Y-121920000D03*
X131770000Y-122570000D03*
X131900000Y-113190000D03*
X131923645Y-109776355D03*
X132250000Y-108260000D03*
X132260573Y-109296437D03*
X132750000Y-107920000D03*
X133545447Y-125490683D03*
X133580000Y-126480000D03*
X133820000Y-120650000D03*
X134000000Y-123056706D03*
X134080000Y-118750000D03*
X134090000Y-116100000D03*
X134198645Y-103598645D03*
X134550000Y-108000000D03*
X134551355Y-103951355D03*
X134620000Y-116100000D03*
X135330000Y-116310000D03*
X135550000Y-123690000D03*
X135566608Y-101792393D03*
X135690000Y-126540000D03*
X135760000Y-107990000D03*
X136500000Y-87800000D03*
X136660000Y-116400000D03*
X137000000Y-112800000D03*
X137240000Y-121250000D03*
X137960000Y-116400000D03*
X138069900Y-101910543D03*
X139050000Y-108020000D03*
X139200000Y-120500000D03*
X139320000Y-123760000D03*
X139440000Y-126560000D03*
X139770000Y-108340000D03*
X139820000Y-116320000D03*
X140216828Y-112395671D03*
X140375000Y-108050000D03*
X141980000Y-121080000D03*
X142010000Y-120090000D03*
X142893049Y-103310212D03*
X143095743Y-56240167D03*
X143101244Y-64250000D03*
X143522703Y-103311996D03*
X143849146Y-64790239D03*
X144150000Y-112000000D03*
X144252159Y-79858991D03*
X144402748Y-66602748D03*
X144596515Y-112786208D03*
X144726600Y-103429661D03*
X144890000Y-116220000D03*
X145174639Y-68174639D03*
X145225871Y-102545789D03*
X145450000Y-112050000D03*
X145480000Y-108110000D03*
X145757904Y-122499985D03*
X145802547Y-103063416D03*
X145970000Y-63500000D03*
X146125000Y-112010000D03*
X146350000Y-65447400D03*
X146379684Y-102521372D03*
X146386177Y-67913823D03*
X146685000Y-112015000D03*
X146827600Y-103048766D03*
X147200000Y-61100000D03*
X147300000Y-111900000D03*
X147307015Y-143849040D03*
X147374960Y-102492073D03*
X147902983Y-142423898D03*
X147960395Y-70163670D03*
X148091365Y-66750000D03*
X148873330Y-68475159D03*
X149100000Y-63350000D03*
X149107729Y-59418780D03*
X149200000Y-65950000D03*
X149800000Y-103390000D03*
X150375000Y-103350000D03*
X150554932Y-59845185D03*
X150876603Y-103350000D03*
X150886062Y-57771662D03*
X151010000Y-116320000D03*
X151182507Y-59086698D03*
X151400000Y-103350000D03*
X151901603Y-103350000D03*
X151909154Y-59814503D03*
X152450000Y-103350000D03*
X153195000Y-108095000D03*
X153980000Y-108340000D03*
X154860000Y-116240000D03*
X155050000Y-108340000D03*
X155870000Y-108340000D03*
X156790000Y-108340000D03*
X157919881Y-134343036D03*
X157920000Y-108340000D03*
X158340000Y-116470000D03*
X158840000Y-108340000D03*
X159400000Y-119500000D03*
X159500000Y-122800000D03*
X159580000Y-108340000D03*
X160140000Y-134670000D03*
X160280000Y-108340000D03*
X160540000Y-116340000D03*
X161150000Y-108340000D03*
X161290000Y-116340000D03*
X161880000Y-116340000D03*
X161950000Y-108320000D03*
X162327781Y-129771099D03*
X162474789Y-118129537D03*
X162672178Y-119162032D03*
X162780000Y-108320000D03*
X163498717Y-108307421D03*
X163610000Y-116460000D03*
X164187708Y-135818670D03*
X164270000Y-108320000D03*
X164647782Y-130674220D03*
X164825000Y-132275000D03*
X165050000Y-108320000D03*
X165060000Y-116440000D03*
X165070000Y-132990000D03*
X165840000Y-108320000D03*
X166560000Y-116430000D03*
X166590526Y-108331830D03*
X166880000Y-137470000D03*
X167150583Y-126995585D03*
X167380000Y-108320000D03*
X167960568Y-125204033D03*
X167973667Y-127818668D03*
X168046931Y-108339966D03*
X168125000Y-116345000D03*
X168500000Y-135250000D03*
X168700000Y-108350000D03*
X168770000Y-116460000D03*
X169540000Y-116460000D03*
X169580000Y-108350000D03*
X170250000Y-133950000D03*
X170380000Y-116460000D03*
X170700000Y-108350000D03*
X171160000Y-116460000D03*
X171450000Y-108350000D03*
X172040000Y-116460000D03*
X172140000Y-108350000D03*
X172510000Y-133500000D03*
X172640000Y-116460000D03*
X172980000Y-108350000D03*
X173425000Y-139865000D03*
X173580000Y-116460000D03*
X173800000Y-128100000D03*
X173900000Y-108350000D03*
X174020000Y-139940000D03*
X174266488Y-116468353D03*
X174995445Y-116459241D03*
X175050000Y-108210000D03*
X175080000Y-139940000D03*
X175300000Y-128100000D03*
X175375000Y-107720000D03*
X175625000Y-116180000D03*
X176118179Y-104117206D03*
X176120000Y-139940000D03*
X176134451Y-104857613D03*
X176199542Y-103254754D03*
X176300000Y-128100000D03*
X176655177Y-103669708D03*
X176679586Y-104491478D03*
X176793495Y-105117976D03*
X176821660Y-116303380D03*
X176861631Y-116934929D03*
X176885614Y-117662410D03*
X176910000Y-133090000D03*
X176990000Y-139940000D03*
X177090000Y-135440000D03*
X177151494Y-104117206D03*
X177453209Y-117622439D03*
X177493181Y-116926935D03*
X177517164Y-116311374D03*
X177582720Y-104597250D03*
X177740000Y-139970000D03*
X177989537Y-105126112D03*
X178000000Y-128100000D03*
X178140719Y-117670405D03*
X178180690Y-116966906D03*
X178188685Y-116327363D03*
X178780000Y-139940000D03*
X178828228Y-117686393D03*
X178844217Y-116351345D03*
X178852211Y-116974901D03*
X178933352Y-107200879D03*
X178949625Y-106574381D03*
X179000000Y-128100000D03*
X179467772Y-116367334D03*
X179499749Y-117006878D03*
X179507744Y-117702382D03*
X179520000Y-139940000D03*
X180090000Y-135430000D03*
X180155282Y-116391317D03*
X180171270Y-117022866D03*
X180171270Y-117702382D03*
X180190000Y-133080000D03*
X180270000Y-139940000D03*
X180660000Y-102570000D03*
X180690000Y-100710000D03*
X180700000Y-128100000D03*
X180900000Y-103780000D03*
X180940000Y-101570000D03*
X181196836Y-104490806D03*
X181540000Y-100520000D03*
X181700000Y-62840000D03*
X181700000Y-128100000D03*
X181990000Y-104560000D03*
X182180000Y-55940000D03*
X183400000Y-128100000D03*
X184247321Y-67359230D03*
X184280000Y-55780000D03*
X184500000Y-62840000D03*
X185400000Y-128200000D03*
X185489067Y-67359230D03*
X186689362Y-94824044D03*
X187752144Y-93947220D03*
X187752144Y-94862416D03*
X187752144Y-95790148D03*
X187752144Y-96905934D03*
X187752144Y-97796055D03*
X187752144Y-98686176D03*
X187752144Y-99739277D03*
X188382455Y-74853650D03*
X188530000Y-136640000D03*
X189131205Y-101231171D03*
X189370000Y-126890000D03*
X189774129Y-101259212D03*
X190547877Y-101259212D03*
X191288030Y-101867739D03*
X191603176Y-139157106D03*
X191658155Y-138299424D03*
X191680147Y-137540704D03*
X191801102Y-132856438D03*
X191801102Y-133835076D03*
X191811093Y-98630579D03*
X191812098Y-134615787D03*
X191823152Y-97050868D03*
X191835211Y-100113819D03*
X191847270Y-95772629D03*
X191955800Y-94470271D03*
X192262932Y-134580944D03*
X192264126Y-101259212D03*
X192394883Y-138299424D03*
X192427870Y-137540704D03*
X192460858Y-139157106D03*
X192691773Y-133835076D03*
X192768744Y-132856438D03*
X192802819Y-85890276D03*
X192954965Y-97307115D03*
X192992576Y-94470271D03*
X193030187Y-95489262D03*
X193030187Y-96316698D03*
X193345190Y-109118731D03*
X193409297Y-88586396D03*
X193430607Y-105641309D03*
X193637423Y-139157106D03*
X193681406Y-133835076D03*
X193714394Y-132856438D03*
X194058214Y-96316698D03*
X194058214Y-97307115D03*
X194120899Y-94470271D03*
X194120899Y-95489262D03*
X194539265Y-128404175D03*
X194783391Y-90914413D03*
X194810430Y-99563761D03*
X195038073Y-74626686D03*
X195041565Y-75150571D03*
X195041565Y-75695411D03*
X195041565Y-76215310D03*
X195057246Y-83386832D03*
X195447838Y-109406594D03*
X195816750Y-74644149D03*
X195833499Y-75159856D03*
X195833499Y-75684761D03*
X195833499Y-76215310D03*
X196104857Y-87001147D03*
X196527728Y-75159856D03*
X196544661Y-75746846D03*
X196544661Y-76198377D03*
X196564323Y-74668597D03*
X197134359Y-75803982D03*
X197150529Y-74647834D03*
X197158614Y-75165271D03*
X198500000Y-65500000D03*
X198500000Y-70100000D03*
X198550000Y-72350000D03*
X198700000Y-68650000D03*
X198800000Y-67150000D03*
X198908138Y-89249633D03*
X199773980Y-94445275D03*
X200195815Y-90557141D03*
X200650000Y-111550000D03*
X200666374Y-82900263D03*
X200685260Y-86999357D03*
X200691955Y-90557141D03*
X200743095Y-82380260D03*
X200961011Y-94709060D03*
X201265082Y-90557141D03*
X201297197Y-82908788D03*
X201356869Y-82388785D03*
X201812547Y-90557141D03*
X201893922Y-82925837D03*
X201910971Y-82405834D03*
X202295218Y-86887456D03*
X202325795Y-90557141D03*
X202490646Y-82942887D03*
X202558843Y-82422884D03*
X202873260Y-90557141D03*
X203061797Y-82951411D03*
X203104420Y-82422884D03*
X203335183Y-91053281D03*
X203335183Y-91669179D03*
X203335183Y-92182427D03*
X203667046Y-82976985D03*
X203701145Y-82439933D03*
X204212623Y-83002559D03*
X204289345Y-82448458D03*
X204775249Y-82976985D03*
X204817872Y-82439933D03*
X205147420Y-78581805D03*
X205291932Y-89814021D03*
X205608107Y-88787881D03*
X206730644Y-94103653D03*
X206870000Y-127580000D03*
X207040000Y-130360000D03*
X207473035Y-116057591D03*
X208243680Y-89579719D03*
X208257517Y-90620773D03*
X208769515Y-82525992D03*
X208769515Y-83118530D03*
X208769515Y-83684129D03*
X208769515Y-84239977D03*
X208769515Y-84786074D03*
X208769515Y-85361425D03*
X208784930Y-81841055D03*
X209477302Y-81841055D03*
X209477302Y-82484668D03*
X209477302Y-83069771D03*
X209477302Y-83615867D03*
X209477302Y-84249729D03*
X209477302Y-84805577D03*
X209477302Y-85361425D03*
X211180741Y-93060963D03*
X211233298Y-91406024D03*
X211233298Y-92415537D03*
X211282946Y-90702675D03*
X211692648Y-93085787D03*
X211845626Y-92415537D03*
X211961471Y-90727499D03*
X212002845Y-91720462D03*
X212251086Y-93085787D03*
X212408305Y-92415537D03*
X212706194Y-91406024D03*
X212720366Y-103073519D03*
X212755946Y-106642834D03*
X212768292Y-107223100D03*
X212797216Y-90710950D03*
X212797216Y-93069238D03*
X212813765Y-92001802D03*
X213325324Y-103061173D03*
X213360904Y-106630488D03*
X213360904Y-107247792D03*
X213954504Y-103363304D03*
X213954504Y-104573245D03*
X213954504Y-105771116D03*
X213966850Y-103943570D03*
X213966850Y-105153511D03*
X213966850Y-106351382D03*
X214559462Y-103350958D03*
X214559462Y-103968262D03*
X214559462Y-104560899D03*
X214559462Y-105178203D03*
X214559462Y-105758770D03*
X214559462Y-106376074D03*
X216445925Y-94974707D03*
X217176993Y-92808556D03*
X217485670Y-88584817D03*
X217882143Y-90746243D03*
X218524174Y-92762179D03*
X218568135Y-91794121D03*
X218914903Y-95453823D03*
X218944445Y-94990997D03*
X218944445Y-95956038D03*
X219057065Y-89180721D03*
X219131545Y-90303652D03*
X219141392Y-89762047D03*
X219150085Y-86230369D03*
X219226352Y-88488450D03*
X219249713Y-94469086D03*
X219397424Y-95247028D03*
X219476203Y-95975733D03*
X219639863Y-88969017D03*
X219671212Y-89548062D03*
X219682997Y-94813744D03*
X219705650Y-90368838D03*
X219761776Y-94370613D03*
X219770290Y-95544509D03*
X219820444Y-88440300D03*
X219968571Y-96005275D03*
X220050032Y-90012977D03*
X220234449Y-95099318D03*
X220234449Y-95591686D03*
X220273839Y-94498628D03*
X220279620Y-88951133D03*
X220285359Y-89530842D03*
X222943351Y-93280488D03*
X223176333Y-90320964D03*
D11*
%TO.C,H2*%
X62600000Y-55000000D03*
%TO.C,H3*%
X62600000Y-145000000D03*
%TO.C,H7*%
X62800000Y-106975000D03*
%TO.C,H8*%
X62850000Y-82000000D03*
%TO.C,H2*%
X63302944Y-53302944D03*
X63302944Y-56697056D03*
%TO.C,H3*%
X63302944Y-143302944D03*
X63302944Y-146697056D03*
%TO.C,H7*%
X63502944Y-105277944D03*
X63502944Y-108672056D03*
%TO.C,H8*%
X63552944Y-80302944D03*
X63552944Y-83697056D03*
%TO.C,H2*%
X65000000Y-52600000D03*
X65000000Y-57400000D03*
%TO.C,H3*%
X65000000Y-142600000D03*
X65000000Y-147400000D03*
%TO.C,H7*%
X65200000Y-104575000D03*
X65200000Y-109375000D03*
%TO.C,H8*%
X65250000Y-79600000D03*
X65250000Y-84400000D03*
%TO.C,H2*%
X66697056Y-53302944D03*
X66697056Y-56697056D03*
%TO.C,H3*%
X66697056Y-143302944D03*
X66697056Y-146697056D03*
%TO.C,H7*%
X66897056Y-105277944D03*
X66897056Y-108672056D03*
%TO.C,H8*%
X66947056Y-80302944D03*
X66947056Y-83697056D03*
%TO.C,H2*%
X67400000Y-55000000D03*
%TO.C,H3*%
X67400000Y-145000000D03*
%TO.C,H7*%
X67600000Y-106975000D03*
%TO.C,H8*%
X67650000Y-82000000D03*
%TO.C,H1*%
X222325000Y-55000000D03*
%TO.C,H4*%
X222600000Y-145000000D03*
%TO.C,H1*%
X223027944Y-53302944D03*
X223027944Y-56697056D03*
%TO.C,H4*%
X223302944Y-143302944D03*
X223302944Y-146697056D03*
%TO.C,H1*%
X224725000Y-52600000D03*
X224725000Y-57400000D03*
%TO.C,H4*%
X225000000Y-142600000D03*
X225000000Y-147400000D03*
%TO.C,H1*%
X226422056Y-53302944D03*
X226422056Y-56697056D03*
%TO.C,H4*%
X226697056Y-143302944D03*
X226697056Y-146697056D03*
%TO.C,H1*%
X227125000Y-55000000D03*
%TO.C,H4*%
X227400000Y-145000000D03*
D12*
%TO.C,J18*%
X222837858Y-87676907D02*
X221737858Y-87676907D01*
X222837858Y-96316907D02*
X221737858Y-96316907D01*
X226887858Y-87676907D02*
X226087858Y-87676907D01*
X226887858Y-96316907D02*
X226087858Y-96316907D01*
D13*
%TO.C,J4*%
X91199999Y-132715000D03*
X91199999Y-135915000D03*
X91699999Y-134215000D03*
X91699999Y-137415000D03*
X93199999Y-132715000D03*
X93199999Y-135915000D03*
X94199999Y-134215000D03*
X94199999Y-137415000D03*
X95199999Y-132715000D03*
X95199999Y-135915000D03*
X96199999Y-134215000D03*
X96199999Y-137415000D03*
X97199999Y-132715000D03*
X97199999Y-135915000D03*
X98699999Y-134215000D03*
X98699999Y-137415000D03*
X99199999Y-132715000D03*
X99199999Y-135915000D03*
D14*
%TO.C,M1*%
X191265113Y-67237729D03*
X191265113Y-69237729D03*
X191265113Y-71237729D03*
X191265113Y-73237729D03*
D15*
%TO.C,J17*%
X218359273Y-65918892D02*
X219559273Y-65918892D01*
X218459273Y-75418892D02*
X219659273Y-75418892D01*
X223159273Y-71768892D02*
X223159273Y-69568892D01*
X223059273Y-65918892D02*
X224259273Y-65918892D01*
X223059273Y-75418892D02*
X224259273Y-75418892D01*
D16*
%TO.C,J6*%
X129975000Y-143525000D03*
X130585000Y-129735000D03*
X131855000Y-132275000D03*
X132515000Y-142005000D03*
X133125000Y-129735000D03*
X134395000Y-132275000D03*
X135665000Y-129735000D03*
X136935000Y-132275000D03*
X138205000Y-129735000D03*
X139475000Y-132275000D03*
X140085000Y-143525000D03*
X140745000Y-129735000D03*
X142015000Y-132275000D03*
X142625000Y-142005000D03*
D17*
%TO.C,J3*%
X169575000Y-139490000D02*
X169575000Y-137690000D01*
X169575000Y-144950000D02*
X169575000Y-144150000D01*
X184075000Y-139490000D02*
X184075000Y-137690000D01*
X184075000Y-144950000D02*
X184075000Y-144150000D01*
D18*
%TO.C,J5*%
X202724998Y-133712685D03*
X202724998Y-136332685D03*
X205224998Y-133712685D03*
X205224998Y-136332685D03*
X207224998Y-133712685D03*
X207224998Y-136332685D03*
X209724998Y-133712685D03*
X209724998Y-136332685D03*
D19*
%TO.C,J13*%
X72500000Y-53200000D03*
X72500000Y-55740000D03*
X72500000Y-58280000D03*
X72500000Y-60820000D03*
%TO.C,J21*%
X76491667Y-53200000D03*
X76491667Y-55740000D03*
X76491667Y-58280000D03*
X76491667Y-60820000D03*
%TO.C,J20*%
X80483333Y-53200000D03*
X80483333Y-55740000D03*
X80483333Y-58280000D03*
X80483333Y-60820000D03*
%TO.C,J12*%
X84475000Y-53200000D03*
X84475000Y-55740000D03*
X84475000Y-58280000D03*
X84475000Y-60820000D03*
%TO.C,J1*%
X91150000Y-52950000D03*
X91150000Y-55490000D03*
X91150000Y-58030000D03*
%TO.C,J19*%
X95325000Y-52950000D03*
X95325000Y-55490000D03*
X95325000Y-58030000D03*
X95325000Y-60570000D03*
%TO.C,J9*%
X99500000Y-52950000D03*
X99500000Y-55490000D03*
X99500000Y-58030000D03*
X99500000Y-60570000D03*
%TO.C,J7*%
X103675000Y-52950000D03*
X103675000Y-55490000D03*
X103675000Y-58030000D03*
X103675000Y-60570000D03*
%TO.C,JP1*%
X187044548Y-79523870D03*
X187044548Y-82063870D03*
X187044548Y-84603870D03*
%TO.C,J10*%
X187425000Y-53170000D03*
X187425000Y-55710000D03*
X187425000Y-58250000D03*
%TO.C,J8*%
X191450000Y-53170000D03*
X191450000Y-55710000D03*
X191450000Y-58250000D03*
%TO.C,J14*%
X196325000Y-53170000D03*
X196325000Y-55710000D03*
X196325000Y-58250000D03*
%TO.C,J11*%
X200300000Y-53170000D03*
X200300000Y-55710000D03*
X200300000Y-58250000D03*
D20*
%TO.C,J17*%
X217159273Y-70668892D03*
D21*
%TO.C,J6*%
X128525000Y-135575000D03*
X144075000Y-135575000D03*
D22*
%TO.C,J4*%
X88629999Y-133735000D03*
X88629999Y-139415000D03*
X101769999Y-133735000D03*
X101769999Y-139415000D03*
%TO.C,J5*%
X199654998Y-133362685D03*
X199654998Y-139042685D03*
X212794998Y-133362685D03*
X212794998Y-139042685D03*
D23*
%TO.C,H5*%
X113250000Y-53500000D03*
%TO.C,H6*%
X176750000Y-53500000D03*
D24*
%TO.C,H2*%
X65000000Y-55000000D03*
%TO.C,H3*%
X65000000Y-145000000D03*
%TO.C,H7*%
X65200000Y-106975000D03*
%TO.C,H8*%
X65250000Y-82000000D03*
%TO.C,H1*%
X224725000Y-55000000D03*
%TO.C,H4*%
X225000000Y-145000000D03*
M02*
