M48
; DRILL file {KiCad 9.0.6} date 2025-11-08T11:21:51+1100
; FORMAT={-:-/ absolute / metric / decimal}
; #@! TF.CreationDate,2025-11-08T11:21:51+11:00
; #@! TF.GenerationSoftware,Kicad,Pcbnew,9.0.6
; #@! TF.FileFunction,Plated,1,4,PTH
FMAT,2
METRIC
; #@! TA.AperFunction,Plated,PTH,ViaDrill
T1C0.200
; #@! TA.AperFunction,Plated,PTH,ComponentDrill
T2C0.500
; #@! TA.AperFunction,Plated,PTH,ComponentDrill
T3C0.600
; #@! TA.AperFunction,Plated,PTH,ComponentDrill
T4C0.700
; #@! TA.AperFunction,Plated,PTH,ComponentDrill
T5C0.750
; #@! TA.AperFunction,Plated,PTH,ComponentDrill
T6C0.800
; #@! TA.AperFunction,Plated,PTH,ComponentDrill
T7C0.900
; #@! TA.AperFunction,Plated,PTH,ComponentDrill
T8C0.920
; #@! TA.AperFunction,Plated,PTH,ComponentDrill
T9C1.000
; #@! TA.AperFunction,Plated,PTH,ComponentDrill
T10C1.400
; #@! TA.AperFunction,Plated,PTH,ComponentDrill
T11C1.500
; #@! TA.AperFunction,Plated,PTH,ComponentDrill
T12C2.300
; #@! TA.AperFunction,Plated,PTH,ComponentDrill
T13C3.050
; #@! TA.AperFunction,Plated,PTH,ComponentDrill
T14C3.200
%
G90
G05
T1
X63.366Y-131.384
X63.427Y-122.07
X64.083Y-131.156
X64.157Y-121.57
X64.724Y-121.57
X64.803Y-131.156
X65.485Y-121.57
X65.631Y-131.156
X66.293Y-121.57
X66.375Y-131.156
X66.933Y-121.57
X67.195Y-131.156
X67.572Y-121.57
X68.123Y-131.156
X68.743Y-121.57
X69.143Y-131.156
X69.419Y-121.57
X69.864Y-122.005
X69.999Y-131.171
X70.473Y-123.995
X70.667Y-124.436
X70.898Y-133.383
X76.9Y-137.4
X77.0Y-135.9
X79.815Y-139.477
X79.815Y-140.737
X79.815Y-141.854
X80.066Y-133.489
X80.077Y-134.307
X80.561Y-142.003
X80.686Y-140.522
X81.063Y-133.053
X81.063Y-134.002
X81.063Y-134.671
X81.098Y-138.886
X81.415Y-140.851
X81.415Y-141.949
X81.946Y-140.522
X82.125Y-133.489
X82.125Y-134.307
X82.275Y-138.886
X82.672Y-140.241
X82.672Y-141.304
X85.52Y-117.1
X85.55Y-116.03
X85.59Y-115.2
X85.78Y-90.16
X85.8Y-90.85
X85.8Y-91.6
X85.8Y-92.35
X85.87Y-98.54
X85.88Y-99.13
X85.9Y-97.25
X85.9Y-97.9
X86.27Y-117.26
X86.4Y-84.7
X86.41Y-116.1
X86.5Y-113.15
X86.53Y-115.19
X86.7Y-72.0
X86.8Y-74.2
X86.9Y-90.15
X86.9Y-90.95
X86.9Y-91.65
X86.9Y-92.4
X86.9Y-97.9
X86.9Y-98.55
X86.9Y-99.15
X86.93Y-97.25
X87.0Y-109.8
X87.04Y-117.26
X87.05Y-111.28
X87.6Y-92.4
X88.65Y-71.48
X88.65Y-74.79
X88.65Y-85.145
X88.65Y-88.128
X88.65Y-89.32
X88.65Y-92.35
X88.65Y-95.41
X88.65Y-96.9
X88.65Y-99.96
X88.65Y-100.98
X88.65Y-101.54
X88.65Y-102.11
X88.65Y-114.7
X88.65Y-117.51
X88.7Y-100.45
X92.8Y-129.0
X93.0Y-126.3
X93.14Y-76.96
X93.376Y-129.2
X93.874Y-129.2
X94.1Y-85.7
X94.1Y-110.0
X94.85Y-93.37
X95.2Y-110.7
X95.5Y-86.7
X96.85Y-98.45
X96.85Y-99.19
X96.85Y-100.01
X96.85Y-100.77
X96.85Y-101.58
X96.85Y-102.38
X96.85Y-103.18
X96.85Y-103.96
X96.85Y-104.76
X96.85Y-105.58
X96.85Y-106.34
X96.85Y-107.2
X96.85Y-107.91
X96.85Y-108.6
X96.85Y-109.24
X96.85Y-109.8
X96.85Y-110.5
X96.87Y-111.22
X97.05Y-115.65
X97.15Y-81.43
X97.15Y-82.06
X97.15Y-82.81
X97.15Y-83.51
X97.15Y-84.18
X97.15Y-84.9
X97.15Y-88.19
X97.15Y-89.03
X97.15Y-89.78
X97.15Y-90.45
X97.16Y-97.725
X97.175Y-87.275
X97.201Y-129.5
X97.295Y-116.145
X97.3Y-73.1
X97.32Y-111.67
X97.39Y-115.225
X97.4Y-74.1
X97.47Y-91.27
X97.55Y-115.725
X97.63Y-86.82
X97.699Y-129.5
X98.2Y-126.1
X98.2Y-129.1
X100.5Y-126.1
X100.5Y-127.376
X100.5Y-127.874
X100.5Y-129.4
X103.375Y-110.596
X103.412Y-111.335
X104.0Y-85.9
X104.458Y-108.067
X104.718Y-108.512
X105.2Y-139.2
X105.3Y-99.4
X105.67Y-97.53
X105.8Y-144.8
X105.93Y-100.23
X106.0Y-96.44
X106.05Y-65.25
X106.224Y-142.024
X106.4Y-57.37
X106.576Y-142.376
X106.81Y-61.88
X107.568Y-111.465
X107.568Y-111.964
X108.96Y-57.39
X109.02Y-61.83
X109.18Y-65.22
X110.3Y-60.1
X110.575Y-61.193
X111.22Y-57.115
X111.415Y-104.533
X111.7Y-58.7
X112.011Y-72.04
X112.071Y-104.485
X112.244Y-71.198
X112.457Y-80.668
X112.619Y-116.48
X113.067Y-90.096
X113.125Y-116.89
X113.74Y-116.38
X113.8Y-67.55
X114.1Y-104.3
X114.51Y-107.99
X114.651Y-116.535
X114.7Y-119.5
X114.777Y-68.9
X114.8Y-104.4
X115.149Y-116.525
X115.2Y-119.5
X115.62Y-116.06
X115.966Y-120.284
X116.0Y-109.5
X116.209Y-81.955
X116.4Y-108.04
X116.499Y-109.5
X116.634Y-120.312
X116.75Y-81.7
X117.3Y-130.7
X117.3Y-131.45
X117.4Y-129.9
X117.455Y-117.577
X117.75Y-83.45
X117.864Y-117.111
X117.91Y-116.25
X117.93Y-107.95
X118.024Y-109.976
X118.25Y-83.2
X118.376Y-109.624
X118.451Y-119.3
X118.752Y-109.061
X118.81Y-125.995
X118.949Y-119.3
X118.994Y-125.157
X119.215Y-108.654
X119.26Y-112.91
X119.48Y-104.84
X119.93Y-112.91
X120.27Y-116.34
X120.925Y-133.79
X120.94Y-107.99
X121.7Y-124.9
X121.7Y-125.8
X121.75Y-116.33
X121.95Y-133.65
X122.34Y-107.94
X122.353Y-123.25
X122.4Y-125.0
X122.7Y-128.3
X123.09Y-123.741
X123.22Y-116.43
X123.532Y-123.294
X123.81Y-107.96
X124.57Y-116.42
X124.799Y-121.57
X124.8Y-129.1
X125.044Y-120.28
X125.1Y-133.0
X125.543Y-120.28
X125.6Y-125.2
X125.94Y-108.56
X126.2Y-116.52
X126.571Y-103.456
X126.585Y-104.171
X126.9Y-107.87
X127.156Y-123.756
X127.4Y-126.1
X127.468Y-73.922
X127.53Y-116.61
X128.05Y-73.9
X128.66Y-107.8
X128.7Y-112.351
X128.7Y-112.849
X129.0Y-126.0
X129.154Y-109.794
X129.174Y-109.168
X129.26Y-116.36
X129.265Y-119.399
X129.55Y-125.95
X129.763Y-119.375
X129.79Y-108.03
X130.28Y-121.91
X130.28Y-122.52
X130.288Y-116.8
X130.42Y-123.06
X130.5Y-93.5
X130.531Y-85.334
X130.787Y-116.8
X130.99Y-122.53
X131.03Y-121.91
X131.054Y-84.8
X131.1Y-110.1
X131.27Y-112.97
X131.34Y-123.08
X131.475Y-126.1
X131.714Y-119.436
X131.76Y-121.92
X131.77Y-122.57
X131.9Y-113.19
X131.924Y-109.776
X132.25Y-108.26
X132.261Y-109.296
X132.75Y-107.92
X133.545Y-125.491
X133.58Y-126.48
X133.82Y-120.65
X134.0Y-123.057
X134.08Y-118.75
X134.09Y-116.1
X134.199Y-103.599
X134.55Y-108.0
X134.551Y-103.951
X134.62Y-116.1
X135.33Y-116.31
X135.55Y-123.69
X135.567Y-101.792
X135.69Y-126.54
X135.76Y-107.99
X136.5Y-87.8
X136.66Y-116.4
X137.0Y-112.8
X137.24Y-121.25
X137.96Y-116.4
X138.07Y-101.911
X139.05Y-108.02
X139.2Y-120.5
X139.32Y-123.76
X139.44Y-126.56
X139.77Y-108.34
X139.82Y-116.32
X140.217Y-112.396
X140.375Y-108.05
X141.98Y-121.08
X142.01Y-120.09
X142.893Y-103.31
X143.096Y-56.24
X143.101Y-64.25
X143.523Y-103.312
X143.849Y-64.79
X144.15Y-112.0
X144.252Y-79.859
X144.403Y-66.603
X144.597Y-112.786
X144.727Y-103.43
X144.89Y-116.22
X145.175Y-68.175
X145.226Y-102.546
X145.45Y-112.05
X145.48Y-108.11
X145.758Y-122.5
X145.803Y-103.063
X145.97Y-63.5
X146.125Y-112.01
X146.35Y-65.447
X146.38Y-102.521
X146.386Y-67.914
X146.685Y-112.015
X146.828Y-103.049
X147.2Y-61.1
X147.3Y-111.9
X147.307Y-143.849
X147.375Y-102.492
X147.903Y-142.424
X147.96Y-70.164
X148.091Y-66.75
X148.873Y-68.475
X149.1Y-63.35
X149.108Y-59.419
X149.2Y-65.95
X149.8Y-103.39
X150.375Y-103.35
X150.555Y-59.845
X150.877Y-103.35
X150.886Y-57.772
X151.01Y-116.32
X151.183Y-59.087
X151.4Y-103.35
X151.902Y-103.35
X151.909Y-59.815
X152.45Y-103.35
X153.195Y-108.095
X153.98Y-108.34
X154.86Y-116.24
X155.05Y-108.34
X155.87Y-108.34
X156.79Y-108.34
X157.92Y-134.343
X157.92Y-108.34
X158.34Y-116.47
X158.84Y-108.34
X159.4Y-119.5
X159.5Y-122.8
X159.58Y-108.34
X160.14Y-134.67
X160.28Y-108.34
X160.54Y-116.34
X161.15Y-108.34
X161.29Y-116.34
X161.88Y-116.34
X161.95Y-108.32
X162.328Y-129.771
X162.475Y-118.13
X162.672Y-119.162
X162.78Y-108.32
X163.499Y-108.307
X163.61Y-116.46
X164.188Y-135.819
X164.27Y-108.32
X164.648Y-130.674
X164.825Y-132.275
X165.05Y-108.32
X165.06Y-116.44
X165.07Y-132.99
X165.84Y-108.32
X166.56Y-116.43
X166.591Y-108.332
X166.88Y-137.47
X167.151Y-126.996
X167.38Y-108.32
X167.961Y-125.204
X167.974Y-127.819
X168.047Y-108.34
X168.125Y-116.345
X168.5Y-135.25
X168.7Y-108.35
X168.77Y-116.46
X169.54Y-116.46
X169.58Y-108.35
X170.25Y-133.95
X170.38Y-116.46
X170.7Y-108.35
X171.16Y-116.46
X171.45Y-108.35
X172.04Y-116.46
X172.14Y-108.35
X172.51Y-133.5
X172.64Y-116.46
X172.98Y-108.35
X173.425Y-139.865
X173.58Y-116.46
X173.8Y-128.1
X173.9Y-108.35
X174.02Y-139.94
X174.266Y-116.468
X174.995Y-116.459
X175.05Y-108.21
X175.08Y-139.94
X175.3Y-128.1
X175.375Y-107.72
X175.625Y-116.18
X176.118Y-104.117
X176.12Y-139.94
X176.134Y-104.858
X176.2Y-103.255
X176.3Y-128.1
X176.655Y-103.67
X176.68Y-104.491
X176.793Y-105.118
X176.822Y-116.303
X176.862Y-116.935
X176.886Y-117.662
X176.91Y-133.09
X176.99Y-139.94
X177.09Y-135.44
X177.151Y-104.117
X177.453Y-117.622
X177.493Y-116.927
X177.517Y-116.311
X177.583Y-104.597
X177.74Y-139.97
X177.99Y-105.126
X178.0Y-128.1
X178.141Y-117.67
X178.181Y-116.967
X178.189Y-116.327
X178.78Y-139.94
X178.828Y-117.686
X178.844Y-116.351
X178.852Y-116.975
X178.933Y-107.201
X178.95Y-106.574
X179.0Y-128.1
X179.468Y-116.367
X179.5Y-117.007
X179.508Y-117.702
X179.52Y-139.94
X180.09Y-135.43
X180.155Y-116.391
X180.171Y-117.023
X180.171Y-117.702
X180.19Y-133.08
X180.27Y-139.94
X180.66Y-102.57
X180.69Y-100.71
X180.7Y-128.1
X180.9Y-103.78
X180.94Y-101.57
X181.197Y-104.491
X181.54Y-100.52
X181.7Y-62.84
X181.7Y-128.1
X181.99Y-104.56
X182.18Y-55.94
X183.4Y-128.1
X184.247Y-67.359
X184.28Y-55.78
X184.5Y-62.84
X185.4Y-128.2
X185.489Y-67.359
X186.689Y-94.824
X187.752Y-93.947
X187.752Y-94.862
X187.752Y-95.79
X187.752Y-96.906
X187.752Y-97.796
X187.752Y-98.686
X187.752Y-99.739
X188.382Y-74.854
X188.53Y-136.64
X189.131Y-101.231
X189.37Y-126.89
X189.774Y-101.259
X190.548Y-101.259
X191.288Y-101.868
X191.603Y-139.157
X191.658Y-138.299
X191.68Y-137.541
X191.801Y-132.856
X191.801Y-133.835
X191.811Y-98.631
X191.812Y-134.616
X191.823Y-97.051
X191.835Y-100.114
X191.847Y-95.773
X191.956Y-94.47
X192.263Y-134.581
X192.264Y-101.259
X192.395Y-138.299
X192.428Y-137.541
X192.461Y-139.157
X192.692Y-133.835
X192.769Y-132.856
X192.803Y-85.89
X192.955Y-97.307
X192.993Y-94.47
X193.03Y-95.489
X193.03Y-96.317
X193.345Y-109.119
X193.409Y-88.586
X193.431Y-105.641
X193.637Y-139.157
X193.681Y-133.835
X193.714Y-132.856
X194.058Y-96.317
X194.058Y-97.307
X194.121Y-94.47
X194.121Y-95.489
X194.539Y-128.404
X194.783Y-90.914
X194.81Y-99.564
X195.038Y-74.627
X195.042Y-75.151
X195.042Y-75.695
X195.042Y-76.215
X195.057Y-83.387
X195.448Y-109.407
X195.817Y-74.644
X195.833Y-75.16
X195.833Y-75.685
X195.833Y-76.215
X196.105Y-87.001
X196.528Y-75.16
X196.545Y-75.747
X196.545Y-76.198
X196.564Y-74.669
X197.134Y-75.804
X197.151Y-74.648
X197.159Y-75.165
X198.5Y-65.5
X198.5Y-70.1
X198.55Y-72.35
X198.7Y-68.65
X198.8Y-67.15
X198.908Y-89.25
X199.774Y-94.445
X200.196Y-90.557
X200.65Y-111.55
X200.666Y-82.9
X200.685Y-86.999
X200.692Y-90.557
X200.743Y-82.38
X200.961Y-94.709
X201.265Y-90.557
X201.297Y-82.909
X201.357Y-82.389
X201.813Y-90.557
X201.894Y-82.926
X201.911Y-82.406
X202.295Y-86.887
X202.326Y-90.557
X202.491Y-82.943
X202.559Y-82.423
X202.873Y-90.557
X203.062Y-82.951
X203.104Y-82.423
X203.335Y-91.053
X203.335Y-91.669
X203.335Y-92.182
X203.667Y-82.977
X203.701Y-82.44
X204.213Y-83.003
X204.289Y-82.448
X204.775Y-82.977
X204.818Y-82.44
X205.147Y-78.582
X205.292Y-89.814
X205.608Y-88.788
X206.731Y-94.104
X206.87Y-127.58
X207.04Y-130.36
X207.473Y-116.058
X208.244Y-89.58
X208.258Y-90.621
X208.77Y-82.526
X208.77Y-83.119
X208.77Y-83.684
X208.77Y-84.24
X208.77Y-84.786
X208.77Y-85.361
X208.785Y-81.841
X209.477Y-81.841
X209.477Y-82.485
X209.477Y-83.07
X209.477Y-83.616
X209.477Y-84.25
X209.477Y-84.806
X209.477Y-85.361
X211.181Y-93.061
X211.233Y-91.406
X211.233Y-92.416
X211.283Y-90.703
X211.693Y-93.086
X211.846Y-92.416
X211.961Y-90.727
X212.003Y-91.72
X212.251Y-93.086
X212.408Y-92.416
X212.706Y-91.406
X212.72Y-103.074
X212.756Y-106.643
X212.768Y-107.223
X212.797Y-90.711
X212.797Y-93.069
X212.814Y-92.002
X213.325Y-103.061
X213.361Y-106.63
X213.361Y-107.248
X213.955Y-103.363
X213.955Y-104.573
X213.955Y-105.771
X213.967Y-103.944
X213.967Y-105.154
X213.967Y-106.351
X214.559Y-103.351
X214.559Y-103.968
X214.559Y-104.561
X214.559Y-105.178
X214.559Y-105.759
X214.559Y-106.376
X216.446Y-94.975
X217.177Y-92.809
X217.486Y-88.585
X217.882Y-90.746
X218.524Y-92.762
X218.568Y-91.794
X218.915Y-95.454
X218.944Y-94.991
X218.944Y-95.956
X219.057Y-89.181
X219.132Y-90.304
X219.141Y-89.762
X219.15Y-86.23
X219.226Y-88.488
X219.25Y-94.469
X219.397Y-95.247
X219.476Y-95.976
X219.64Y-88.969
X219.671Y-89.548
X219.683Y-94.814
X219.706Y-90.369
X219.762Y-94.371
X219.77Y-95.545
X219.82Y-88.44
X219.969Y-96.005
X220.05Y-90.013
X220.234Y-95.099
X220.234Y-95.592
X220.274Y-94.499
X220.28Y-88.951
X220.285Y-89.531
X222.943Y-93.28
X223.176Y-90.321
T2
X62.6Y-55.0
X62.6Y-145.0
X62.8Y-106.975
X62.85Y-82.0
X63.303Y-53.303
X63.303Y-56.697
X63.303Y-143.303
X63.303Y-146.697
X63.503Y-105.278
X63.503Y-108.672
X63.553Y-80.303
X63.553Y-83.697
X65.0Y-52.6
X65.0Y-57.4
X65.0Y-142.6
X65.0Y-147.4
X65.2Y-104.575
X65.2Y-109.375
X65.25Y-79.6
X65.25Y-84.4
X66.697Y-53.303
X66.697Y-56.697
X66.697Y-143.303
X66.697Y-146.697
X66.897Y-105.278
X66.897Y-108.672
X66.947Y-80.303
X66.947Y-83.697
X67.4Y-55.0
X67.4Y-145.0
X67.6Y-106.975
X67.65Y-82.0
X222.325Y-55.0
X222.6Y-145.0
X223.028Y-53.303
X223.028Y-56.697
X223.303Y-143.303
X223.303Y-146.697
X224.725Y-52.6
X224.725Y-57.4
X225.0Y-142.6
X225.0Y-147.4
X226.422Y-53.303
X226.422Y-56.697
X226.697Y-143.303
X226.697Y-146.697
X227.125Y-55.0
X227.4Y-145.0
T4
X91.2Y-132.715
X91.2Y-135.915
X91.7Y-134.215
X91.7Y-137.415
X93.2Y-132.715
X93.2Y-135.915
X94.2Y-134.215
X94.2Y-137.415
X95.2Y-132.715
X95.2Y-135.915
X96.2Y-134.215
X96.2Y-137.415
X97.2Y-132.715
X97.2Y-135.915
X98.7Y-134.215
X98.7Y-137.415
X99.2Y-132.715
X99.2Y-135.915
T5
X191.265Y-67.238
X191.265Y-69.238
X191.265Y-71.238
X191.265Y-73.238
T7
X129.975Y-143.525
X130.585Y-129.735
X131.855Y-132.275
X132.515Y-142.005
X133.125Y-129.735
X134.395Y-132.275
X135.665Y-129.735
X136.935Y-132.275
X138.205Y-129.735
X139.475Y-132.275
X140.085Y-143.525
X140.745Y-129.735
X142.015Y-132.275
X142.625Y-142.005
T8
X202.725Y-133.713
X202.725Y-136.333
X205.225Y-133.713
X205.225Y-136.333
X207.225Y-133.713
X207.225Y-136.333
X209.725Y-133.713
X209.725Y-136.333
T9
X72.5Y-53.2
X72.5Y-55.74
X72.5Y-58.28
X72.5Y-60.82
X76.492Y-53.2
X76.492Y-55.74
X76.492Y-58.28
X76.492Y-60.82
X80.483Y-53.2
X80.483Y-55.74
X80.483Y-58.28
X80.483Y-60.82
X84.475Y-53.2
X84.475Y-55.74
X84.475Y-58.28
X84.475Y-60.82
X91.15Y-52.95
X91.15Y-55.49
X91.15Y-58.03
X95.325Y-52.95
X95.325Y-55.49
X95.325Y-58.03
X95.325Y-60.57
X99.5Y-52.95
X99.5Y-55.49
X99.5Y-58.03
X99.5Y-60.57
X103.675Y-52.95
X103.675Y-55.49
X103.675Y-58.03
X103.675Y-60.57
X187.045Y-79.524
X187.045Y-82.064
X187.045Y-84.604
X187.425Y-53.17
X187.425Y-55.71
X187.425Y-58.25
X191.45Y-53.17
X191.45Y-55.71
X191.45Y-58.25
X196.325Y-53.17
X196.325Y-55.71
X196.325Y-58.25
X200.3Y-53.17
X200.3Y-55.71
X200.3Y-58.25
T10
X217.159Y-70.669
T11
X128.525Y-135.575
X144.075Y-135.575
T12
X88.63Y-133.735
X88.63Y-139.415
X101.77Y-133.735
X101.77Y-139.415
X199.655Y-133.363
X199.655Y-139.043
X212.795Y-133.363
X212.795Y-139.043
T13
X113.25Y-53.5
X176.75Y-53.5
T14
X65.0Y-55.0
X65.0Y-145.0
X65.2Y-106.975
X65.25Y-82.0
X224.725Y-55.0
X225.0Y-145.0
T3
G00X221.738Y-87.677
M15
G01X222.838Y-87.677
M16
G05
G00X221.738Y-96.317
M15
G01X222.838Y-96.317
M16
G05
G00X226.088Y-87.677
M15
G01X226.888Y-87.677
M16
G05
G00X226.088Y-96.317
M15
G01X226.888Y-96.317
M16
G05
T6
G00X219.559Y-65.919
M15
G01X218.359Y-65.919
M16
G05
G00X219.559Y-75.419
M15
G01X218.359Y-75.419
M16
G05
G00X223.159Y-69.569
M15
G01X223.159Y-71.769
M16
G05
G00X224.259Y-65.919
M15
G01X223.059Y-65.919
M16
G05
G00X224.259Y-75.419
M15
G01X223.059Y-75.419
M16
G05
T7
G00X169.575Y-137.69
M15
G01X169.575Y-139.49
M16
G05
G00X169.575Y-144.15
M15
G01X169.575Y-144.95
M16
G05
G00X184.075Y-137.69
M15
G01X184.075Y-139.49
M16
G05
G00X184.075Y-144.15
M15
G01X184.075Y-144.95
M16
G05
M30
