%TF.GenerationSoftware,KiCad,Pcbnew,9.0.6*%
%TF.CreationDate,2025-11-08T11:21:44+11:00*%
%TF.ProjectId,LattePandaMu_carrier_custom,4c617474-6550-4616-9e64-614d755f6361,2*%
%TF.SameCoordinates,Original*%
%TF.FileFunction,Copper,L4,Bot*%
%TF.FilePolarity,Positive*%
%FSLAX46Y46*%
G04 Gerber Fmt 4.6, Leading zero omitted, Abs format (unit mm)*
G04 Created by KiCad (PCBNEW 9.0.6) date 2025-11-08 11:21:44*
%MOMM*%
%LPD*%
G01*
G04 APERTURE LIST*
G04 Aperture macros list*
%AMRoundRect*
0 Rectangle with rounded corners*
0 $1 Rounding radius*
0 $2 $3 $4 $5 $6 $7 $8 $9 X,Y pos of 4 corners*
0 Add a 4 corners polygon primitive as box body*
4,1,4,$2,$3,$4,$5,$6,$7,$8,$9,$2,$3,0*
0 Add four circle primitives for the rounded corners*
1,1,$1+$1,$2,$3*
1,1,$1+$1,$4,$5*
1,1,$1+$1,$6,$7*
1,1,$1+$1,$8,$9*
0 Add four rect primitives between the rounded corners*
20,1,$1+$1,$2,$3,$4,$5,0*
20,1,$1+$1,$4,$5,$6,$7,0*
20,1,$1+$1,$6,$7,$8,$9,0*
20,1,$1+$1,$8,$9,$2,$3,0*%
G04 Aperture macros list end*
%TA.AperFunction,ComponentPad*%
%ADD10C,2.200000*%
%TD*%
%TA.AperFunction,ComponentPad*%
%ADD11O,1.500000X3.700000*%
%TD*%
%TA.AperFunction,ComponentPad*%
%ADD12O,2.700000X1.500000*%
%TD*%
%TA.AperFunction,ComponentPad*%
%ADD13C,3.200000*%
%TD*%
%TA.AperFunction,ComponentPad*%
%ADD14R,1.700000X1.700000*%
%TD*%
%TA.AperFunction,ComponentPad*%
%ADD15O,1.700000X1.700000*%
%TD*%
%TA.AperFunction,ComponentPad*%
%ADD16R,1.200000X1.200000*%
%TD*%
%TA.AperFunction,ComponentPad*%
%ADD17C,1.200000*%
%TD*%
%TA.AperFunction,ComponentPad*%
%ADD18C,3.500000*%
%TD*%
%TA.AperFunction,ComponentPad*%
%ADD19C,0.800000*%
%TD*%
%TA.AperFunction,ComponentPad*%
%ADD20C,6.400000*%
%TD*%
%TA.AperFunction,ComponentPad*%
%ADD21RoundRect,0.250000X0.625000X-0.350000X0.625000X0.350000X-0.625000X0.350000X-0.625000X-0.350000X0*%
%TD*%
%TA.AperFunction,ComponentPad*%
%ADD22O,1.750000X1.200000*%
%TD*%
%TA.AperFunction,ComponentPad*%
%ADD23R,1.500000X1.500000*%
%TD*%
%TA.AperFunction,ComponentPad*%
%ADD24C,1.500000*%
%TD*%
%TA.AperFunction,ComponentPad*%
%ADD25O,2.100000X1.000000*%
%TD*%
%TA.AperFunction,ComponentPad*%
%ADD26O,1.800000X1.000000*%
%TD*%
%TA.AperFunction,ComponentPad*%
%ADD27C,1.900000*%
%TD*%
%TA.AperFunction,ComponentPad*%
%ADD28R,1.900000X1.900000*%
%TD*%
%TA.AperFunction,ComponentPad*%
%ADD29C,2.500000*%
%TD*%
%TA.AperFunction,ComponentPad*%
%ADD30O,1.500000X3.300000*%
%TD*%
%TA.AperFunction,ComponentPad*%
%ADD31O,1.500000X2.300000*%
%TD*%
%TA.AperFunction,ViaPad*%
%ADD32C,0.400000*%
%TD*%
%TA.AperFunction,Conductor*%
%ADD33C,0.198628*%
%TD*%
%TA.AperFunction,Conductor*%
%ADD34C,0.500000*%
%TD*%
%TA.AperFunction,Conductor*%
%ADD35C,0.150000*%
%TD*%
%TA.AperFunction,Conductor*%
%ADD36C,2.000000*%
%TD*%
%TA.AperFunction,Conductor*%
%ADD37C,3.000000*%
%TD*%
%TA.AperFunction,Conductor*%
%ADD38C,0.300000*%
%TD*%
%TA.AperFunction,Conductor*%
%ADD39C,0.400000*%
%TD*%
%TA.AperFunction,Conductor*%
%ADD40C,0.200000*%
%TD*%
G04 APERTURE END LIST*
D10*
%TO.P,J17,1*%
%TO.N,+12V*%
X217159273Y-70668892D03*
D11*
%TO.P,J17,2*%
%TO.N,GND*%
X223159273Y-70668892D03*
D12*
%TO.P,J17,3*%
X223659273Y-65918892D03*
X218959273Y-65918892D03*
X223659273Y-75418892D03*
X218959273Y-75418892D03*
%TD*%
D13*
%TO.P,H5,1,1*%
%TO.N,GND*%
X113250000Y-53500000D03*
%TD*%
D14*
%TO.P,J14,1,Pin_1*%
%TO.N,+3V3*%
X196325000Y-58250000D03*
D15*
%TO.P,J14,2,Pin_2*%
X196325000Y-55710000D03*
%TO.P,J14,3,Pin_3*%
X196325000Y-53170000D03*
%TD*%
D14*
%TO.P,J21,1,Pin_1*%
%TO.N,+3V3*%
X76491667Y-53200000D03*
D15*
%TO.P,J21,2,Pin_2*%
X76491667Y-55740000D03*
%TO.P,J21,3,Pin_3*%
X76491667Y-58280000D03*
%TO.P,J21,4,Pin_4*%
X76491667Y-60820000D03*
%TD*%
D14*
%TO.P,J13,1,Pin_1*%
%TO.N,+3V3*%
X72500000Y-53200000D03*
D15*
%TO.P,J13,2,Pin_2*%
X72500000Y-55740000D03*
%TO.P,J13,3,Pin_3*%
X72500000Y-58280000D03*
%TO.P,J13,4,Pin_4*%
X72500000Y-60820000D03*
%TD*%
D16*
%TO.P,J4,1,VBUS1*%
%TO.N,Net-(J4A-VBUS1)*%
X91699999Y-137415000D03*
D17*
%TO.P,J4,2,D1-*%
%TO.N,/USB 2.0 & 3.0/CON_USB3_D_N*%
X94199999Y-137415000D03*
%TO.P,J4,3,D1+*%
%TO.N,/USB 2.0 & 3.0/CON_USB3_D_P*%
X96199999Y-137415000D03*
%TO.P,J4,4,GND1*%
%TO.N,GND*%
X98699999Y-137415000D03*
%TO.P,J4,5,SSRX1-*%
%TO.N,/USB 2.0 & 3.0/CON_USB3_SSRX_N*%
X99199999Y-135915000D03*
%TO.P,J4,6,SSRX1+*%
%TO.N,/USB 2.0 & 3.0/CON_USB3_SSRX_P*%
X97199999Y-135915000D03*
%TO.P,J4,7,DRAIN1*%
%TO.N,GND*%
X95199999Y-135915000D03*
%TO.P,J4,8,SSTX1-*%
%TO.N,/USB 2.0 & 3.0/CON_USB3_SSTX_N*%
X93199999Y-135915000D03*
%TO.P,J4,9,SSTX1+*%
%TO.N,/USB 2.0 & 3.0/CON_USB3_SSTX_P*%
X91199999Y-135915000D03*
%TO.P,J4,10,VBUS2*%
%TO.N,Net-(J4B-VBUS2)*%
X91699999Y-134215000D03*
%TO.P,J4,11,D2-*%
%TO.N,/USB 2.0 & 3.0/CON_USB4_D_N*%
X94199999Y-134215000D03*
%TO.P,J4,12,D2+*%
%TO.N,/USB 2.0 & 3.0/CON_USB4_D_P*%
X96199999Y-134215000D03*
%TO.P,J4,13,GND2*%
%TO.N,GND*%
X98699999Y-134215000D03*
%TO.P,J4,14,SSRX2-*%
%TO.N,/USB 2.0 & 3.0/CON_USB4_SSRX_N*%
X99199999Y-132715000D03*
%TO.P,J4,15,SSRX2+*%
%TO.N,/USB 2.0 & 3.0/CON_USB4_SSRX_P*%
X97199999Y-132715000D03*
%TO.P,J4,16,DRAIN2*%
%TO.N,GND*%
X95199999Y-132715000D03*
%TO.P,J4,17,SSTX2-*%
%TO.N,/USB 2.0 & 3.0/CON_USB4_SSTX_N*%
X93199999Y-132715000D03*
%TO.P,J4,18,SSTX2+*%
%TO.N,/USB 2.0 & 3.0/CON_USB4_SSTX_P*%
X91199999Y-132715000D03*
D18*
%TO.P,J4,19,SHIELD*%
%TO.N,GND*%
X88629999Y-133735000D03*
X88629999Y-139415000D03*
X101769999Y-133735000D03*
X101769999Y-139415000D03*
%TD*%
D14*
%TO.P,J20,1,Pin_1*%
%TO.N,GND*%
X80483333Y-53200000D03*
D15*
%TO.P,J20,2,Pin_2*%
X80483333Y-55740000D03*
%TO.P,J20,3,Pin_3*%
X80483333Y-58280000D03*
%TO.P,J20,4,Pin_4*%
X80483333Y-60820000D03*
%TD*%
D14*
%TO.P,JP1,1,A*%
%TO.N,/~{PWR_LED}{slash}~{PSON}*%
X187044548Y-84603870D03*
D15*
%TO.P,JP1,2,C*%
%TO.N,Net-(JP1-C)*%
X187044548Y-82063870D03*
%TO.P,JP1,3,B*%
%TO.N,/LattePanda Module/SLS_S3*%
X187044548Y-79523870D03*
%TD*%
D19*
%TO.P,H4,1,1*%
%TO.N,GND*%
X222600000Y-145000000D03*
X223302944Y-143302944D03*
X223302944Y-146697056D03*
X225000000Y-142600000D03*
D20*
X225000000Y-145000000D03*
D19*
X225000000Y-147400000D03*
X226697056Y-143302944D03*
X226697056Y-146697056D03*
X227400000Y-145000000D03*
%TD*%
D14*
%TO.P,J8,1,Pin_1*%
%TO.N,/GPIO/SOC_UART0_RX*%
X191450000Y-58250000D03*
D15*
%TO.P,J8,2,Pin_2*%
%TO.N,/GPIO/SOC_UART1_RX*%
X191450000Y-55710000D03*
%TO.P,J8,3,Pin_3*%
%TO.N,/GPIO/SOC_UART2_RX*%
X191450000Y-53170000D03*
%TD*%
D21*
%TO.P,M1,1,-*%
%TO.N,GND*%
X191265113Y-73237729D03*
D22*
%TO.P,M1,2,+*%
%TO.N,+5V*%
X191265113Y-71237729D03*
%TO.P,M1,3,Tacho*%
%TO.N,Net-(D26-A)*%
X191265113Y-69237729D03*
%TO.P,M1,4,PWM*%
%TO.N,Net-(M1-PWM)*%
X191265113Y-67237729D03*
%TD*%
D14*
%TO.P,J9,1,Pin_1*%
%TO.N,/GPIO/I2C2_SCL*%
X99500000Y-52950000D03*
D15*
%TO.P,J9,2,Pin_2*%
%TO.N,/GPIO/I2C3_SCL*%
X99500000Y-55490000D03*
%TO.P,J9,3,Pin_3*%
%TO.N,/GPIO/I2C4_SCL*%
X99500000Y-58030000D03*
%TO.P,J9,4,Pin_4*%
%TO.N,/GPIO/I2C5_SCL*%
X99500000Y-60570000D03*
%TD*%
D14*
%TO.P,J1,1,Pin_1*%
%TO.N,Net-(A1-SIO_UART_TX)*%
X91150000Y-52950000D03*
D15*
%TO.P,J1,2,Pin_2*%
%TO.N,Net-(A1-SIO_UART_RX)*%
X91150000Y-55490000D03*
%TO.P,J1,3,Pin_3*%
%TO.N,GND*%
X91150000Y-58030000D03*
%TD*%
D23*
%TO.P,J5,1,VBUS1*%
%TO.N,Net-(J5-VBUS1)*%
X202724998Y-136332685D03*
D24*
%TO.P,J5,2,D1-*%
%TO.N,/USB 2.0 & 3.0/CON_USB1_D_N*%
X205224998Y-136332685D03*
%TO.P,J5,3,D1+*%
%TO.N,/USB 2.0 & 3.0/CON_USB1_D_P*%
X207224998Y-136332685D03*
%TO.P,J5,4,GND1*%
%TO.N,GND*%
X209724998Y-136332685D03*
%TO.P,J5,5,VBUS2*%
%TO.N,Net-(J5-VBUS2)*%
X202724998Y-133712685D03*
%TO.P,J5,6,D2-*%
%TO.N,/USB 2.0 & 3.0/CON_USB2_D_N*%
X205224998Y-133712685D03*
%TO.P,J5,7,D2+*%
%TO.N,/USB 2.0 & 3.0/CON_USB2_D_P*%
X207224998Y-133712685D03*
%TO.P,J5,8,GND2*%
%TO.N,GND*%
X209724998Y-133712685D03*
D18*
%TO.P,J5,9,Shield*%
X199654998Y-139042685D03*
X212794998Y-139042685D03*
X199654998Y-133362685D03*
X212794998Y-133362685D03*
%TD*%
D13*
%TO.P,H6,1,1*%
%TO.N,GND*%
X176750000Y-53500000D03*
%TD*%
D19*
%TO.P,H7,1,1*%
%TO.N,GND*%
X67600000Y-106975000D03*
X66897056Y-108672056D03*
X66897056Y-105277944D03*
X65200000Y-109375000D03*
D20*
X65200000Y-106975000D03*
D19*
X65200000Y-104575000D03*
X63502944Y-108672056D03*
X63502944Y-105277944D03*
X62800000Y-106975000D03*
%TD*%
D25*
%TO.P,J18,S1,SHIELD*%
%TO.N,GND*%
X222287858Y-96316907D03*
D26*
X226487858Y-96316907D03*
D25*
X222287858Y-87676907D03*
D26*
X226487858Y-87676907D03*
%TD*%
D19*
%TO.P,H2,1,1*%
%TO.N,GND*%
X62600000Y-55000000D03*
X63302944Y-53302944D03*
X63302944Y-56697056D03*
X65000000Y-52600000D03*
D20*
X65000000Y-55000000D03*
D19*
X65000000Y-57400000D03*
X66697056Y-53302944D03*
X66697056Y-56697056D03*
X67400000Y-55000000D03*
%TD*%
%TO.P,H3,1,1*%
%TO.N,GND*%
X62600000Y-145000000D03*
X63302944Y-143302944D03*
X63302944Y-146697056D03*
X65000000Y-142600000D03*
D20*
X65000000Y-145000000D03*
D19*
X65000000Y-147400000D03*
X66697056Y-143302944D03*
X66697056Y-146697056D03*
X67400000Y-145000000D03*
%TD*%
%TO.P,H1,1,1*%
%TO.N,GND*%
X222325000Y-55000000D03*
X223027944Y-53302944D03*
X223027944Y-56697056D03*
X224725000Y-52600000D03*
D20*
X224725000Y-55000000D03*
D19*
X224725000Y-57400000D03*
X226422056Y-53302944D03*
X226422056Y-56697056D03*
X227125000Y-55000000D03*
%TD*%
D27*
%TO.P,J6,L1*%
%TO.N,Net-(J6-PadL1)*%
X142625000Y-142005000D03*
%TO.P,J6,L2*%
%TO.N,Net-(U6-LED2)*%
X140085000Y-143525000D03*
%TO.P,J6,L3*%
%TO.N,Net-(J6-PadL3)*%
X132515000Y-142005000D03*
%TO.P,J6,L4*%
%TO.N,Net-(U6-LED1)*%
X129975000Y-143525000D03*
D28*
%TO.P,J6,R1,CT*%
%TO.N,Net-(J6-CT)*%
X130585000Y-129735000D03*
D27*
%TO.P,J6,R2,TD1+*%
%TO.N,/Gigabit Ethernet/MDI0+*%
X131855000Y-132275000D03*
%TO.P,J6,R3,TD1-*%
%TO.N,/Gigabit Ethernet/MDI0-*%
X133125000Y-129735000D03*
%TO.P,J6,R4,TD2+*%
%TO.N,/Gigabit Ethernet/MDI1+*%
X134395000Y-132275000D03*
%TO.P,J6,R5,TD2-*%
%TO.N,/Gigabit Ethernet/MDI1-*%
X135665000Y-129735000D03*
%TO.P,J6,R6,TD3+*%
%TO.N,/Gigabit Ethernet/MDI2+*%
X136935000Y-132275000D03*
%TO.P,J6,R7,TD3-*%
%TO.N,/Gigabit Ethernet/MDI2-*%
X138205000Y-129735000D03*
%TO.P,J6,R8,TD4+*%
%TO.N,/Gigabit Ethernet/MDI3+*%
X139475000Y-132275000D03*
%TO.P,J6,R9,TD4-*%
%TO.N,/Gigabit Ethernet/MDI3-*%
X140745000Y-129735000D03*
%TO.P,J6,R10,GND*%
%TO.N,GND*%
X142015000Y-132275000D03*
D29*
%TO.P,J6,SH,SH*%
X128525000Y-135575000D03*
X144075000Y-135575000D03*
%TD*%
D30*
%TO.P,J3,SH,SH*%
%TO.N,GND*%
X184075000Y-138590000D03*
X169575000Y-138590000D03*
D31*
X184075000Y-144550000D03*
X169575000Y-144550000D03*
%TD*%
D14*
%TO.P,J10,1,Pin_1*%
%TO.N,/GPIO/SOC_UART0_TX*%
X187425000Y-58250000D03*
D15*
%TO.P,J10,2,Pin_2*%
%TO.N,/GPIO/SOC_UART1_TX*%
X187425000Y-55710000D03*
%TO.P,J10,3,Pin_3*%
%TO.N,/GPIO/SOC_UART2_TX*%
X187425000Y-53170000D03*
%TD*%
D19*
%TO.P,H8,1,1*%
%TO.N,GND*%
X62850000Y-82000000D03*
X63552944Y-80302944D03*
X63552944Y-83697056D03*
X65250000Y-79600000D03*
D20*
X65250000Y-82000000D03*
D19*
X65250000Y-84400000D03*
X66947056Y-80302944D03*
X66947056Y-83697056D03*
X67650000Y-82000000D03*
%TD*%
D14*
%TO.P,J7,1,Pin_1*%
%TO.N,/GPIO/I2C2_SDA*%
X103675000Y-52950000D03*
D15*
%TO.P,J7,2,Pin_2*%
%TO.N,/GPIO/I2C3_SDA*%
X103675000Y-55490000D03*
%TO.P,J7,3,Pin_3*%
%TO.N,/GPIO/I2C4_SDA*%
X103675000Y-58030000D03*
%TO.P,J7,4,Pin_4*%
%TO.N,/GPIO/I2C5_SDA*%
X103675000Y-60570000D03*
%TD*%
D14*
%TO.P,J11,1,Pin_1*%
%TO.N,GND*%
X200300000Y-58250000D03*
D15*
%TO.P,J11,2,Pin_2*%
X200300000Y-55710000D03*
%TO.P,J11,3,Pin_3*%
X200300000Y-53170000D03*
%TD*%
D14*
%TO.P,J19,1,Pin_1*%
%TO.N,/GPIO/GPP_D0*%
X95325000Y-52950000D03*
D15*
%TO.P,J19,2,Pin_2*%
%TO.N,/GPIO/GPP_D1*%
X95325000Y-55490000D03*
%TO.P,J19,3,Pin_3*%
%TO.N,/GPIO/GPP_D2*%
X95325000Y-58030000D03*
%TO.P,J19,4,Pin_4*%
%TO.N,/GPIO/GPP_D3*%
X95325000Y-60570000D03*
%TD*%
D14*
%TO.P,J12,1,Pin_1*%
%TO.N,GND*%
X84475000Y-53200000D03*
D15*
%TO.P,J12,2,Pin_2*%
X84475000Y-55740000D03*
%TO.P,J12,3,Pin_3*%
X84475000Y-58280000D03*
%TO.P,J12,4,Pin_4*%
X84475000Y-60820000D03*
%TD*%
D32*
%TO.N,GND*%
X97150000Y-88190000D03*
X177740000Y-139970000D03*
X121950000Y-133650000D03*
X120940000Y-107990000D03*
X175080000Y-139940000D03*
X85800000Y-90850000D03*
X160280000Y-108340000D03*
X96850000Y-105580000D03*
X70898097Y-133382926D03*
X166560000Y-116430000D03*
X87000000Y-109800000D03*
X217176993Y-92808556D03*
X160140000Y-134670000D03*
X191823152Y-97050868D03*
X97150000Y-82810000D03*
X198500000Y-65500000D03*
X180090000Y-135430000D03*
X105930000Y-100230000D03*
X96850000Y-100770000D03*
X67194707Y-131156454D03*
X131900000Y-113190000D03*
X65484602Y-121570260D03*
X202295218Y-86887456D03*
X96850000Y-106340000D03*
X96850000Y-110500000D03*
X129790000Y-108030000D03*
X198800000Y-67150000D03*
X65630722Y-131156454D03*
X172980000Y-108350000D03*
X85900000Y-97250000D03*
X177090000Y-135440000D03*
X175375000Y-107720000D03*
X97150000Y-89030000D03*
X180660000Y-102570000D03*
X97320000Y-111670000D03*
X134090000Y-116100000D03*
X134080000Y-118750000D03*
X85870000Y-98540000D03*
X194783391Y-90914413D03*
X211961471Y-90727499D03*
X127530000Y-116610000D03*
X217485670Y-88584817D03*
X163610000Y-116460000D03*
X98200000Y-129100000D03*
X165070000Y-132990000D03*
X115620000Y-116060000D03*
X195447838Y-109406594D03*
X126900000Y-107870000D03*
X116400000Y-108040000D03*
X140375000Y-108050000D03*
X96850000Y-102380000D03*
X123810000Y-107960000D03*
X173580000Y-116460000D03*
X131270000Y-112970000D03*
X86900000Y-92400000D03*
X139440000Y-126560000D03*
X193345190Y-109118731D03*
X170700000Y-108350000D03*
X96850000Y-103960000D03*
X97150000Y-89780000D03*
X205291932Y-89814021D03*
X181540000Y-100520000D03*
X171160000Y-116460000D03*
X165060000Y-116440000D03*
X86900000Y-99150000D03*
X181700000Y-62840000D03*
X141980000Y-121080000D03*
X172510000Y-133500000D03*
X125940000Y-108560000D03*
X126200000Y-116520000D03*
X92800000Y-129000000D03*
X105670000Y-97530000D03*
X207040000Y-130360000D03*
X172040000Y-116460000D03*
X167380000Y-108320000D03*
X128660000Y-107800000D03*
X68742895Y-121570260D03*
X211845626Y-92415537D03*
X165840000Y-108320000D03*
X120270000Y-116340000D03*
X180940000Y-101570000D03*
X211692648Y-93085787D03*
X125100000Y-133000000D03*
X85900000Y-97900000D03*
X175625000Y-116180000D03*
X153195000Y-108095000D03*
X135690000Y-126540000D03*
X69863990Y-122004828D03*
X96850000Y-98450000D03*
X131760000Y-121920000D03*
X97150000Y-83510000D03*
X69999234Y-131170546D03*
X118810345Y-125995159D03*
X205608107Y-88787881D03*
X175050000Y-108210000D03*
X130420000Y-123060000D03*
X125600000Y-125200000D03*
X176990000Y-139940000D03*
X130280000Y-122520000D03*
X106810000Y-61880000D03*
X93140000Y-76960000D03*
X166590526Y-108331830D03*
X168770000Y-116460000D03*
X137960000Y-116400000D03*
X86700000Y-72000000D03*
X164270000Y-108320000D03*
X106000000Y-96440000D03*
X219150085Y-86230369D03*
X86270000Y-117260000D03*
X96850000Y-109240000D03*
X180900000Y-103780000D03*
X97150000Y-82060000D03*
X191835211Y-100113819D03*
X212002845Y-91720462D03*
X118993516Y-125156801D03*
X211180741Y-93060963D03*
X131030000Y-121910000D03*
X171450000Y-108350000D03*
X86530000Y-115190000D03*
X169580000Y-108350000D03*
X161290000Y-116340000D03*
X64083464Y-131156454D03*
X93000000Y-126300000D03*
X178780000Y-139940000D03*
X139050000Y-108020000D03*
X131770000Y-122570000D03*
X85550000Y-116030000D03*
X96850000Y-107200000D03*
X137240000Y-121250000D03*
X161950000Y-108320000D03*
X157920000Y-108340000D03*
X70473222Y-123994801D03*
X172640000Y-116460000D03*
X87050000Y-111280000D03*
X105200000Y-139200000D03*
X191811093Y-98630579D03*
X136660000Y-116400000D03*
X206870000Y-127580000D03*
X196104857Y-87001147D03*
X66293142Y-121570260D03*
X86900000Y-98550000D03*
X85800000Y-91600000D03*
X69418689Y-121570260D03*
X86410000Y-116100000D03*
X195057246Y-83386832D03*
X69143416Y-131156454D03*
X109020000Y-61830000D03*
X85590000Y-115200000D03*
X155050000Y-108340000D03*
X85880000Y-99130000D03*
X162780000Y-108320000D03*
X117400000Y-129900000D03*
X135330000Y-116310000D03*
X145480000Y-108110000D03*
X134620000Y-116100000D03*
X182180000Y-55940000D03*
X67572323Y-121570260D03*
X97550000Y-115725000D03*
X117300000Y-131450000D03*
X174020000Y-139940000D03*
X86900000Y-97900000D03*
X161150000Y-108340000D03*
X104000000Y-85900000D03*
X186689362Y-94824044D03*
X205147420Y-78581805D03*
X119260000Y-112910000D03*
X216445925Y-94974707D03*
X212813765Y-92001802D03*
X97150000Y-84900000D03*
X160540000Y-116340000D03*
X154860000Y-116240000D03*
X121750000Y-116330000D03*
X198700000Y-68650000D03*
X97300000Y-73100000D03*
X119930000Y-112910000D03*
X77000000Y-135900000D03*
X188382455Y-74853650D03*
X132750000Y-107920000D03*
X206730644Y-94103653D03*
X96850000Y-107910000D03*
X192802819Y-85890276D03*
X64157150Y-121570260D03*
X96850000Y-101580000D03*
X156790000Y-108340000D03*
X207473035Y-116057591D03*
X120925000Y-133790000D03*
X131340000Y-123080000D03*
X114510000Y-107990000D03*
X122340000Y-107940000D03*
X199773980Y-94445275D03*
X124570000Y-116420000D03*
X130990000Y-122530000D03*
X168700000Y-108350000D03*
X212797216Y-90710950D03*
X87040000Y-117260000D03*
X162672178Y-119162032D03*
X181196836Y-104490806D03*
X109180000Y-65220000D03*
X100500000Y-129400000D03*
X188530000Y-136640000D03*
X135550000Y-123690000D03*
X105800000Y-144800000D03*
X180270000Y-139940000D03*
X97470000Y-91270000D03*
X86900000Y-90150000D03*
X169540000Y-116460000D03*
X162474789Y-118129537D03*
X64724334Y-121570260D03*
X63426566Y-122069509D03*
X86900000Y-90950000D03*
X86800000Y-74200000D03*
X108960000Y-57390000D03*
X97390000Y-115225000D03*
X96850000Y-100010000D03*
X212797216Y-93069238D03*
X117930000Y-107950000D03*
X63366161Y-131384333D03*
X106050000Y-65250000D03*
X129260000Y-116360000D03*
X124800000Y-129100000D03*
X123220000Y-116430000D03*
X170380000Y-116460000D03*
X86930000Y-97250000D03*
X97400000Y-74100000D03*
X100500000Y-126100000D03*
X159580000Y-108340000D03*
X176120000Y-139940000D03*
X176910000Y-133090000D03*
X174995445Y-116459241D03*
X174266488Y-116468353D03*
X184280000Y-55780000D03*
X66375079Y-131156454D03*
X180690000Y-100710000D03*
X164825000Y-132275000D03*
X161880000Y-116340000D03*
X151010000Y-116320000D03*
X97050000Y-115650000D03*
X173425000Y-139865000D03*
X211233298Y-91406024D03*
X142010000Y-120090000D03*
X198500000Y-70100000D03*
X212706194Y-91406024D03*
X166880000Y-137470000D03*
X133580000Y-126480000D03*
X97150000Y-84180000D03*
X200685260Y-86999357D03*
X165050000Y-108320000D03*
X122400000Y-125000000D03*
X85780000Y-90160000D03*
X168125000Y-116345000D03*
X119480000Y-104840000D03*
X76900000Y-137400000D03*
X181990000Y-104560000D03*
X96850000Y-108600000D03*
X163498717Y-108307421D03*
X113740000Y-116380000D03*
X138069900Y-101910543D03*
X155870000Y-108340000D03*
X130280000Y-121910000D03*
X85800000Y-92350000D03*
X173900000Y-108350000D03*
X198550000Y-72350000D03*
X139770000Y-108340000D03*
X211233298Y-92415537D03*
X97150000Y-90450000D03*
X191955800Y-94470271D03*
X139320000Y-123760000D03*
X179520000Y-139940000D03*
X105300000Y-99400000D03*
X191847270Y-95772629D03*
X212251086Y-93085787D03*
X87600000Y-92400000D03*
X144890000Y-116220000D03*
X66932732Y-121570260D03*
X68123062Y-131156454D03*
X96850000Y-109800000D03*
X184500000Y-62840000D03*
X172140000Y-108350000D03*
X96850000Y-99190000D03*
X96870000Y-111220000D03*
X200961011Y-94709060D03*
X117300000Y-130700000D03*
X135566608Y-101792393D03*
X135760000Y-107990000D03*
X153980000Y-108340000D03*
X70667137Y-124435838D03*
X97630000Y-86820000D03*
X97160000Y-97725000D03*
X97150000Y-81430000D03*
X180190000Y-133080000D03*
X117910000Y-116250000D03*
X212408305Y-92415537D03*
X97295000Y-116145000D03*
X211282946Y-90702675D03*
X96850000Y-103180000D03*
X98200000Y-126100000D03*
X134550000Y-108000000D03*
X85520000Y-117100000D03*
X139820000Y-116320000D03*
X189370000Y-126890000D03*
X97175000Y-87275000D03*
X168046931Y-108339966D03*
X158340000Y-116470000D03*
X96850000Y-104760000D03*
X86900000Y-91650000D03*
X122700000Y-128300000D03*
X64802730Y-131156454D03*
X106400000Y-57370000D03*
X132250000Y-108260000D03*
X158840000Y-108340000D03*
%TO.N,/USB 2.0 & 3.0/CON_USB4_D_N*%
X100500000Y-127375597D03*
%TO.N,/USB 2.0 & 3.0/CON_USB3_SSRX_P*%
X116000000Y-109500000D03*
X97200597Y-129500000D03*
X115966272Y-120283815D03*
%TO.N,+BATT*%
X145757904Y-122499985D03*
X140216828Y-112395671D03*
%TO.N,/GPIO/GPP_D0*%
X142893049Y-103310212D03*
X143101244Y-64250000D03*
%TO.N,VDC*%
X204289345Y-82448458D03*
X201812547Y-90557141D03*
X176821660Y-116303380D03*
X209477302Y-81841055D03*
X176793495Y-105117976D03*
X213954504Y-104573245D03*
X203335183Y-92182427D03*
X212755946Y-106642834D03*
X179499749Y-117006878D03*
X203701145Y-82439933D03*
X176679586Y-104491478D03*
X177989537Y-105126112D03*
X201910971Y-82405834D03*
X209477302Y-83069771D03*
X178140719Y-117670405D03*
X213360904Y-106630488D03*
X214559462Y-106376074D03*
X176134451Y-104857613D03*
X178188685Y-116327363D03*
X180155282Y-116391317D03*
X213966850Y-105153511D03*
X214559462Y-103968262D03*
X208769515Y-83684129D03*
X212768292Y-107223100D03*
X178852211Y-116974901D03*
X200743095Y-82380260D03*
X180171270Y-117022866D03*
X178949625Y-106574381D03*
X201356869Y-82388785D03*
X208784930Y-81841055D03*
X200666374Y-82900263D03*
X178844217Y-116351345D03*
X208769515Y-82525992D03*
X209477302Y-83615867D03*
X209477302Y-82484668D03*
X178180690Y-116966906D03*
X213325324Y-103061173D03*
X177453209Y-117622439D03*
X177493181Y-116926935D03*
X212720366Y-103073519D03*
X202325795Y-90557141D03*
X204817872Y-82439933D03*
X214559462Y-105178203D03*
X213966850Y-103943570D03*
X214559462Y-105758770D03*
X176199542Y-103254754D03*
X176861631Y-116934929D03*
X202873260Y-90557141D03*
X202490646Y-82942887D03*
X204212623Y-83002559D03*
X203667046Y-82976985D03*
X177582720Y-104597250D03*
X180171270Y-117702382D03*
X202558843Y-82422884D03*
X177151494Y-104117206D03*
X213954504Y-105771116D03*
X214559462Y-103350958D03*
X178933352Y-107200879D03*
X209477302Y-84249729D03*
X179467772Y-116367334D03*
X213966850Y-106351382D03*
X177517164Y-116311374D03*
X204775249Y-82976985D03*
X208769515Y-84786074D03*
X176655177Y-103669708D03*
X209477302Y-85361425D03*
X201893922Y-82925837D03*
X213360904Y-107247792D03*
X214559462Y-104560899D03*
X203335183Y-91053281D03*
X201265082Y-90557141D03*
X178828228Y-117686393D03*
X203104420Y-82422884D03*
X203335183Y-91669179D03*
X208769515Y-85361425D03*
X179507744Y-117702382D03*
X208769515Y-84239977D03*
X201297197Y-82908788D03*
X209477302Y-84805577D03*
X200195815Y-90557141D03*
X208769515Y-83118530D03*
X176885614Y-117662410D03*
X203061797Y-82951411D03*
X176118179Y-104117206D03*
X213954504Y-103363304D03*
X200691955Y-90557141D03*
%TO.N,/LattePanda Module/SLS_S3*%
X113125000Y-116890097D03*
X112457320Y-80668484D03*
%TO.N,/USB 2.0 & 3.0/CON_USB3_D_N*%
X106576355Y-142376355D03*
X107568366Y-111963709D03*
%TO.N,/GPIO/GPP_D3*%
X145174639Y-68174639D03*
X145225871Y-102545789D03*
%TO.N,Net-(A1-~{BIOS_SEL})*%
X143095743Y-56240167D03*
X144596515Y-112786208D03*
%TO.N,/GPIO/SOC_UART0_TX*%
X146125000Y-112010000D03*
X148091365Y-66750000D03*
%TO.N,/Gigabit Ethernet/GbE_PCIe_TX-*%
X128700000Y-112849403D03*
X130288097Y-116800000D03*
%TO.N,/~{PWR_LED}{slash}~{PSON}*%
X113067082Y-90096113D03*
X112618800Y-116480001D03*
X193430607Y-105641309D03*
X194539265Y-128404175D03*
%TO.N,Net-(A1-SIO_UART_RX)*%
X114800000Y-104400000D03*
X114776600Y-68900000D03*
%TO.N,/HDMI/DDI_B_HPD*%
X159400000Y-119500000D03*
X159500000Y-122800000D03*
%TO.N,/GPIO/SOC_UART1_TX*%
X149200000Y-65950000D03*
X147300000Y-111900000D03*
%TO.N,/Gigabit Ethernet/GbE_PCIe_CLK-*%
X134198645Y-103598645D03*
X129264851Y-119398842D03*
%TO.N,/GPIO/I2C4_SCL*%
X149100000Y-63350000D03*
X149800000Y-103390000D03*
%TO.N,/Fan/FAN_1_TAC*%
X112010721Y-72040466D03*
X112071064Y-104484556D03*
%TO.N,/GPIO/I2C5_SCL*%
X146827600Y-103048766D03*
X145970000Y-63500000D03*
%TO.N,/Gigabit Ethernet/GbE_PCIe_RX+*%
X126584955Y-104171078D03*
X125542526Y-120280062D03*
%TO.N,/GPIO/I2C4_SDA*%
X150375000Y-103350000D03*
X149107729Y-59418780D03*
%TO.N,/Gigabit Ethernet/GbE_PCIe_RX-*%
X126571073Y-103456103D03*
X125043720Y-120280062D03*
%TO.N,/GPIO/SOC_UART2_TX*%
X146350000Y-65447400D03*
X145802547Y-103063416D03*
%TO.N,/LattePanda Module/SUSCKL_WIFI*%
X86400000Y-84700000D03*
X144252159Y-79858991D03*
X144150000Y-112000000D03*
X86500000Y-113150000D03*
%TO.N,/GPIO/I2C5_SDA*%
X147374960Y-102492073D03*
X147200000Y-61100000D03*
%TO.N,/LattePanda Module/HSIO_0_TX+*%
X114700000Y-119500000D03*
X114650692Y-116534885D03*
%TO.N,/LattePanda Module/REFCLK3+*%
X132260573Y-109296437D03*
X131053665Y-84800493D03*
%TO.N,/LattePanda Module/REFCLK3-*%
X130531216Y-85333593D03*
X131923645Y-109776355D03*
%TO.N,/Gigabit Ethernet/GbE_PCIe_CLK+*%
X129763112Y-119375486D03*
X134551355Y-103951355D03*
%TO.N,/LattePanda Module/HSIO_3_RX+*%
X119214771Y-108653662D03*
X118250000Y-83200000D03*
%TO.N,/LattePanda Module/USB_2_P7+*%
X128050000Y-73900000D03*
X129173798Y-109168041D03*
%TO.N,/~{PLT_RST}*%
X94100000Y-85700000D03*
X131100000Y-110100000D03*
X94850000Y-93370000D03*
X130500000Y-93500000D03*
X94100000Y-110000000D03*
X124798957Y-121569669D03*
%TO.N,/Fan/FAN_1_PWM*%
X185489067Y-67359230D03*
X184247321Y-67359230D03*
X111415127Y-104533077D03*
X112244210Y-71197615D03*
%TO.N,/GPIO/I2C2_SCL*%
X111220362Y-57114891D03*
X151901603Y-103350000D03*
X151909154Y-59814503D03*
X110300000Y-60100000D03*
%TO.N,/LattePanda Module/USB_2_P7-*%
X127468486Y-73921765D03*
X129154074Y-109794199D03*
%TO.N,/GPIO/SOC_UART1_RX*%
X148873330Y-68475159D03*
X146685000Y-112015000D03*
%TO.N,/LattePanda Module/HSIO_3_TX-*%
X116208872Y-81955112D03*
X117454781Y-117576554D03*
%TO.N,/GPIO/I2C3_SDA*%
X151182507Y-59086698D03*
X151400000Y-103350000D03*
%TO.N,/USB 2.0 & 3.0/CON_USB4_SSRX_P*%
X118023645Y-109976355D03*
X118450597Y-119300000D03*
%TO.N,/USB 2.0 & 3.0/CON_USB3_D_P*%
X107568366Y-111464903D03*
X106223645Y-142023645D03*
%TO.N,Net-(A1-SIO_UART_TX)*%
X114100000Y-104300000D03*
X113800000Y-67550000D03*
%TO.N,/GPIO/SOC_UART2_RX*%
X146386177Y-67913823D03*
X146379684Y-102521372D03*
%TO.N,/Gigabit Ethernet/GbE_PCIe_TX+*%
X128700000Y-112350597D03*
X130786903Y-116800000D03*
%TO.N,/LattePanda Module/HSIO_0_TX-*%
X115149403Y-116525000D03*
X115200000Y-119500000D03*
%TO.N,/GPIO/GPP_D1*%
X143522703Y-103311996D03*
X143849146Y-64790239D03*
%TO.N,/LattePanda Module/HSIO_3_TX+*%
X117863855Y-117111145D03*
X116750000Y-81700000D03*
%TO.N,/LattePanda Module/HSIO_3_RX-*%
X118752430Y-109060798D03*
X117750000Y-83450000D03*
%TO.N,/USB 2.0 & 3.0/CON_USB4_D_P*%
X100500000Y-127874403D03*
%TO.N,/USB 2.0 & 3.0/CON_USB3_SSRX_N*%
X97699403Y-129500000D03*
X116634371Y-120312231D03*
X116498809Y-109500000D03*
%TO.N,/LattePanda Module/REFCLK0+*%
X104718457Y-108511595D03*
X103412038Y-111335063D03*
%TO.N,/USB 2.0 & 3.0/CON_USB4_SSRX_N*%
X118376355Y-109623645D03*
X118949403Y-119300000D03*
%TO.N,/GPIO/I2C2_SDA*%
X152450000Y-103350000D03*
X150886062Y-57771662D03*
%TO.N,/GPIO/GPP_D2*%
X144726600Y-103429661D03*
X144402748Y-66602748D03*
%TO.N,/LattePanda Module/REFCLK0-*%
X104457998Y-108066634D03*
X103374542Y-110596385D03*
%TO.N,/GPIO/SOC_UART0_RX*%
X147960395Y-70163670D03*
X145450000Y-112050000D03*
%TO.N,/GPIO/I2C3_SCL*%
X150554932Y-59845185D03*
X150876603Y-103350000D03*
X110574944Y-61193323D03*
X111700000Y-58700000D03*
%TO.N,/~{WAKE}*%
X136500000Y-87800000D03*
X137000000Y-112800000D03*
X95200000Y-110700000D03*
X95500000Y-86700000D03*
%TO.N,+3V3*%
X131713719Y-119436281D03*
X167960568Y-125204033D03*
X157919881Y-134343036D03*
X167973667Y-127818668D03*
X88650000Y-71480000D03*
X190547877Y-101259212D03*
X88650000Y-74790000D03*
X187752144Y-94862416D03*
X193030187Y-95489262D03*
X88650000Y-89320000D03*
X88700000Y-100450000D03*
X189131205Y-101231171D03*
X133545447Y-125490683D03*
X187752144Y-96905934D03*
X194810430Y-99563761D03*
X187752144Y-99739277D03*
X194058214Y-96316698D03*
X147307015Y-143849040D03*
X192992576Y-94470271D03*
X88650000Y-85144590D03*
X192954965Y-97307115D03*
X88650000Y-88127668D03*
X88650000Y-99960000D03*
X88650000Y-117510000D03*
X88650000Y-102110000D03*
X187752144Y-98686176D03*
X123090306Y-123741431D03*
X122352677Y-123249678D03*
X187752144Y-97796055D03*
X200650000Y-111550000D03*
X194058214Y-97307115D03*
X88650000Y-95410171D03*
X167150583Y-126995585D03*
X88650000Y-101540000D03*
X162327781Y-129771099D03*
X193030187Y-96316698D03*
X88650000Y-100980000D03*
X88650000Y-92350000D03*
X187752144Y-93947220D03*
X194120899Y-94470271D03*
X191288030Y-101867739D03*
X194120899Y-95489262D03*
X123531766Y-123294383D03*
X192264126Y-101259212D03*
X88650000Y-114700000D03*
X88650000Y-96900000D03*
X187752144Y-95790148D03*
X147902983Y-142423898D03*
X164647782Y-130674220D03*
X189774129Y-101259212D03*
%TO.N,5V_HDMI_VCC*%
X168500000Y-135250000D03*
X170250000Y-133950000D03*
%TO.N,/USB 2.0 & 3.0/CON_USB3_SSTX_N*%
X93874403Y-129200000D03*
%TO.N,/USB 2.0 & 3.0/CON_USB3_SSTX_P*%
X93375597Y-129200000D03*
%TO.N,+5V*%
X164187708Y-135818670D03*
X80065555Y-133488867D03*
X82274663Y-138886256D03*
X191603176Y-139157106D03*
X192460858Y-139157106D03*
X81414902Y-140850572D03*
X195041565Y-75695411D03*
X191801102Y-132856438D03*
X192427870Y-137540704D03*
X195038073Y-74626686D03*
X191801102Y-133835076D03*
X193637423Y-139157106D03*
X191680147Y-137540704D03*
X81946282Y-140522191D03*
X197150529Y-74647834D03*
X196544661Y-76198377D03*
X195833499Y-76215310D03*
X197134359Y-75803982D03*
X192394883Y-138299424D03*
X192691773Y-133835076D03*
X80077496Y-134306834D03*
X196527728Y-75159856D03*
X81062639Y-134671038D03*
X191658155Y-138299424D03*
X195833499Y-75159856D03*
X195041565Y-76215310D03*
X196544661Y-75746846D03*
X191812098Y-134615787D03*
X82125399Y-134306834D03*
X195833499Y-75684761D03*
X81062639Y-133053016D03*
X192262932Y-134580944D03*
X81414902Y-141949155D03*
X82672013Y-140240733D03*
X196564323Y-74668597D03*
X81062639Y-134002335D03*
X195816750Y-74644149D03*
X197158614Y-75165271D03*
X81098462Y-138886256D03*
X80686493Y-140522191D03*
X193714394Y-132856438D03*
X195041565Y-75150571D03*
X82672013Y-141304334D03*
X79814791Y-140737131D03*
X79814791Y-141853626D03*
X82125399Y-133488867D03*
X79814791Y-139477342D03*
X192768744Y-132856438D03*
X80561111Y-142002890D03*
X193681406Y-133835076D03*
%TO.N,+1V0*%
X121700000Y-125800000D03*
X131475000Y-126100000D03*
X121700000Y-124900000D03*
X134000000Y-123056706D03*
X133820000Y-120650000D03*
X127400000Y-126100000D03*
X127155908Y-123755594D03*
X139200000Y-120500000D03*
%TO.N,Net-(U16-SW)*%
X193409297Y-88586396D03*
X198908138Y-89249633D03*
%TO.N,/Power Supply/PWR_C_D-*%
X218568135Y-91794121D03*
X217882143Y-90746243D03*
X218524174Y-92762179D03*
%TO.N,+15V*%
X220050032Y-90012977D03*
X220285359Y-89530842D03*
X219397424Y-95247028D03*
X219226352Y-88488450D03*
X219057065Y-89180721D03*
X220234449Y-95591686D03*
X219141392Y-89762047D03*
X219131545Y-90303652D03*
X220279620Y-88951133D03*
X219820444Y-88440300D03*
X218944445Y-95956038D03*
X219770290Y-95544509D03*
X219968571Y-96005275D03*
X220273839Y-94498628D03*
X219682997Y-94813744D03*
X219476203Y-95975733D03*
X219639863Y-88969017D03*
X219705650Y-90368838D03*
X220234449Y-95099318D03*
X219761776Y-94370613D03*
X218944445Y-94990997D03*
X219249713Y-94469086D03*
X219671212Y-89548062D03*
X218914903Y-95453823D03*
%TO.N,/Power Supply/CC2*%
X223176333Y-90320964D03*
X208243680Y-89579719D03*
%TO.N,Net-(U6-LED2)*%
X129000000Y-126000000D03*
%TO.N,Net-(U6-LED1)*%
X129550000Y-125950000D03*
%TO.N,Net-(Q4-D)*%
X175300000Y-128100000D03*
X185400000Y-128200000D03*
X183400000Y-128100000D03*
X176300000Y-128100000D03*
X180700000Y-128100000D03*
X178000000Y-128100000D03*
X181700000Y-128100000D03*
X179000000Y-128100000D03*
X173800000Y-128100000D03*
%TO.N,/Power Supply/CC1*%
X222943351Y-93280488D03*
X208257517Y-90620773D03*
%TD*%
D33*
%TO.N,/USB 2.0 & 3.0/CON_USB4_D_N*%
X94199999Y-131800001D02*
X94199999Y-134215000D01*
X96213399Y-127476283D02*
X95051283Y-128638399D01*
X95051283Y-130948717D02*
X94199999Y-131800001D01*
X95051283Y-128638399D02*
X95051283Y-130948717D01*
X100399314Y-127476283D02*
X96213399Y-127476283D01*
X100500000Y-127375597D02*
X100399314Y-127476283D01*
%TO.N,/USB 2.0 & 3.0/CON_USB3_SSRX_P*%
X116150000Y-109852626D02*
X116000000Y-109702626D01*
X115966272Y-120247883D02*
X116150000Y-120064155D01*
X116150000Y-120064155D02*
X116150000Y-109852626D01*
X98052545Y-135262863D02*
X98052545Y-135697455D01*
X115966272Y-120283815D02*
X115966272Y-120247883D01*
X98052545Y-135697455D02*
X97835000Y-135915000D01*
X97451283Y-134661601D02*
X98052545Y-135262863D01*
X116000000Y-109702626D02*
X116000000Y-109500000D01*
X97301283Y-131161601D02*
X98101283Y-131961601D01*
X98101283Y-133087185D02*
X97451283Y-133737185D01*
X98101283Y-131961601D02*
X98101283Y-133087185D01*
X97835000Y-135915000D02*
X97199999Y-135915000D01*
X97200597Y-129500000D02*
X97301283Y-129600686D01*
X97301283Y-129600686D02*
X97301283Y-131161601D01*
X97451283Y-133737185D02*
X97451283Y-134661601D01*
D34*
%TO.N,+BATT*%
X141370174Y-118112255D02*
X141370174Y-112670174D01*
X141370174Y-112670174D02*
X141095671Y-112395671D01*
X145757904Y-122499985D02*
X141370174Y-118112255D01*
X141095671Y-112395671D02*
X140216828Y-112395671D01*
D35*
%TO.N,/GPIO/GPP_D0*%
X142893049Y-103310212D02*
X142893049Y-64458195D01*
X142893049Y-64458195D02*
X143101244Y-64250000D01*
D36*
%TO.N,VDC*%
X180494624Y-61258442D02*
X176734493Y-65018573D01*
X179275782Y-104987937D02*
X181101000Y-106813155D01*
X206369022Y-65990501D02*
X206369022Y-65976104D01*
X203581916Y-63158704D02*
X201681654Y-61258442D01*
X204374591Y-84392075D02*
X205866403Y-84392075D01*
X206850277Y-66471756D02*
X206369022Y-65990501D01*
X206369022Y-65976104D02*
X203581916Y-63188998D01*
D37*
X205273051Y-102758115D02*
X204299386Y-101784450D01*
D36*
X176734493Y-101766891D02*
X179275782Y-104308180D01*
X201681654Y-61258442D02*
X180494624Y-61258442D01*
D37*
X204299386Y-92018999D02*
X201609051Y-89328664D01*
D36*
X206850277Y-83408201D02*
X206850277Y-66471756D01*
X181101000Y-106813155D02*
X181101000Y-113238028D01*
X203581916Y-63188998D02*
X203581916Y-63158704D01*
D37*
X204299386Y-101784450D02*
X204299386Y-92018999D01*
X212182529Y-104967340D02*
X207482276Y-104967340D01*
D36*
X181101000Y-113238028D02*
X180112244Y-114226784D01*
X179275782Y-104308180D02*
X179275782Y-104987937D01*
D37*
X207482276Y-104967340D02*
X205273051Y-102758115D01*
D36*
X205866403Y-84392075D02*
X206850277Y-83408201D01*
X176734493Y-65018573D02*
X176734493Y-101766891D01*
D35*
%TO.N,/LattePanda Module/SLS_S3*%
X113125000Y-116890097D02*
X112853403Y-117161694D01*
X112490149Y-117161694D02*
X112008117Y-116679662D01*
X112333063Y-80792741D02*
X112457320Y-80668484D01*
X112701541Y-102128407D02*
X112333063Y-101759929D01*
X112008117Y-113298708D02*
X112701541Y-112605284D01*
X112701541Y-112605284D02*
X112701541Y-102128407D01*
X112853403Y-117161694D02*
X112490149Y-117161694D01*
X112008117Y-116679662D02*
X112008117Y-113298708D01*
X112333063Y-101759929D02*
X112333063Y-80792741D01*
D33*
%TO.N,/USB 2.0 & 3.0/CON_USB3_D_N*%
X106889136Y-139025461D02*
X106838785Y-139025461D01*
X106889136Y-139926145D02*
X106979204Y-139836077D01*
X106838785Y-139025461D02*
X106748717Y-138935393D01*
X106748717Y-138935393D02*
X106748717Y-136414302D01*
X106748717Y-139415757D02*
X106838785Y-139325689D01*
X106838785Y-139926145D02*
X106889136Y-139926145D01*
X106838785Y-139325689D02*
X106889136Y-139325689D01*
X106979204Y-139715985D02*
X106889136Y-139625917D01*
X106748717Y-142061601D02*
X106748717Y-140016213D01*
X106979204Y-139115529D02*
X106889136Y-139025461D01*
X106576355Y-142233963D02*
X106748717Y-142061601D01*
X106838785Y-139625917D02*
X106748717Y-139535849D01*
X106979204Y-139235621D02*
X106979204Y-139115529D01*
X106748717Y-139535849D02*
X106748717Y-139415757D01*
X106748717Y-136414302D02*
X106748717Y-112061601D01*
X106947295Y-111863023D02*
X107467680Y-111863023D01*
X106889136Y-139625917D02*
X106838785Y-139625917D01*
X106748717Y-112061601D02*
X106947295Y-111863023D01*
X107467680Y-111863023D02*
X107568366Y-111963709D01*
X106979204Y-139836077D02*
X106979204Y-139715985D01*
X106576355Y-142376355D02*
X106576355Y-142233963D01*
X106748717Y-140016213D02*
X106838785Y-139926145D01*
X106889136Y-139325689D02*
X106979204Y-139235621D01*
D35*
%TO.N,/GPIO/GPP_D3*%
X145337579Y-102434081D02*
X145337579Y-68337579D01*
X145337579Y-68337579D02*
X145174639Y-68174639D01*
X145225871Y-102545789D02*
X145337579Y-102434081D01*
%TO.N,Net-(A1-~{BIOS_SEL})*%
X143095743Y-56240167D02*
X142106380Y-57229530D01*
X144473996Y-112541168D02*
X144596515Y-112663687D01*
X142106380Y-57229530D02*
X142106380Y-111656380D01*
X144596515Y-112663687D02*
X144596515Y-112786208D01*
X142991168Y-112541168D02*
X144473996Y-112541168D01*
X142106380Y-111656380D02*
X142991168Y-112541168D01*
%TO.N,/GPIO/SOC_UART0_TX*%
X146160688Y-111016876D02*
X146160688Y-111974312D01*
X148461531Y-108716033D02*
X146160688Y-111016876D01*
X148091365Y-66750000D02*
X148461531Y-67120166D01*
X146160688Y-111974312D02*
X146125000Y-112010000D01*
X148461531Y-67120166D02*
X148461531Y-108716033D01*
D33*
%TO.N,/Gigabit Ethernet/GbE_PCIe_TX-*%
X130388783Y-115755411D02*
X130298715Y-115665343D01*
X130153850Y-115575275D02*
X130153850Y-115455183D01*
X130298715Y-116265799D02*
X130243918Y-116265799D01*
X130388783Y-115875503D02*
X130388783Y-115755411D01*
X130388783Y-114554499D02*
X130298715Y-114464431D01*
X130153850Y-116055639D02*
X130243918Y-115965571D01*
X130298715Y-115665343D02*
X130243918Y-115665343D01*
X130243918Y-115665343D02*
X130153850Y-115575275D01*
X130388783Y-116355867D02*
X130298715Y-116265799D01*
X130153850Y-116175731D02*
X130153850Y-116055639D01*
X130153850Y-114374363D02*
X130153850Y-114254271D01*
X130298715Y-115064887D02*
X130243933Y-115064887D01*
X130298715Y-114764659D02*
X130388783Y-114674591D01*
X130243933Y-114764659D02*
X130298715Y-114764659D01*
X130388783Y-114074135D02*
X130388783Y-113149101D01*
X129988399Y-112748717D02*
X128800686Y-112748717D01*
X130298715Y-114464431D02*
X130243918Y-114464431D01*
X130153850Y-115455183D02*
X130243918Y-115365115D01*
X130243933Y-115064887D02*
X130153865Y-114974819D01*
X130388783Y-115154955D02*
X130298715Y-115064887D01*
X130243918Y-115965571D02*
X130298715Y-115965571D01*
X130153850Y-114254271D02*
X130243918Y-114164203D01*
X130388783Y-114674591D02*
X130388783Y-114554499D01*
X130153865Y-114854727D02*
X130243933Y-114764659D01*
X130388783Y-115275047D02*
X130388783Y-115154955D01*
X130231392Y-112991710D02*
X129988399Y-112748717D01*
X130243918Y-115365115D02*
X130298715Y-115365115D01*
X130243918Y-116265799D02*
X130153850Y-116175731D01*
X130243918Y-114464431D02*
X130153850Y-114374363D01*
X128800686Y-112748717D02*
X128700000Y-112849403D01*
X130298715Y-114164203D02*
X130388783Y-114074135D01*
X130288097Y-116800000D02*
X130388783Y-116699314D01*
X130298715Y-115965571D02*
X130388783Y-115875503D01*
X130298715Y-115365115D02*
X130388783Y-115275047D01*
X130243918Y-114164203D02*
X130298715Y-114164203D01*
X130388783Y-116699314D02*
X130388783Y-116355867D01*
X130388783Y-113149101D02*
X130231392Y-112991710D01*
X130153865Y-114974819D02*
X130153865Y-114854727D01*
D35*
%TO.N,/~{PWR_LED}{slash}~{PSON}*%
X112892120Y-101006680D02*
X113239860Y-101354420D01*
X194539265Y-128404175D02*
X194539265Y-106490493D01*
X113239860Y-112774009D02*
X112618800Y-113395069D01*
X112618800Y-113395069D02*
X112618800Y-116480001D01*
X113239860Y-101354420D02*
X113239860Y-112774009D01*
X194539265Y-106490493D02*
X193713669Y-105664897D01*
X193690081Y-105641309D02*
X193430607Y-105641309D01*
X113067082Y-90096113D02*
X112892120Y-90271075D01*
X193713669Y-105664897D02*
X193690081Y-105641309D01*
X112892120Y-90271075D02*
X112892120Y-101006680D01*
%TO.N,Net-(A1-SIO_UART_RX)*%
X114863279Y-69313279D02*
X114863809Y-69313809D01*
X114863279Y-69205814D02*
X114863279Y-69313279D01*
X114776600Y-68900000D02*
X114800000Y-68923400D01*
X114800000Y-68923400D02*
X114800000Y-69142535D01*
X114863809Y-104336191D02*
X114800000Y-104400000D01*
X114863809Y-69313809D02*
X114863809Y-104336191D01*
X114800000Y-69142535D02*
X114863279Y-69205814D01*
%TO.N,/HDMI/DDI_B_HPD*%
X159400000Y-119850000D02*
X159400000Y-119500000D01*
X159500000Y-122800000D02*
X159500000Y-119950000D01*
X159500000Y-119950000D02*
X159400000Y-119850000D01*
%TO.N,/GPIO/SOC_UART1_TX*%
X147300000Y-111900000D02*
X149325568Y-109874432D01*
X149200000Y-66150000D02*
X149200000Y-65950000D01*
X149325568Y-66275568D02*
X149200000Y-66150000D01*
X149325568Y-109874432D02*
X149325568Y-66275568D01*
D33*
%TO.N,/Gigabit Ethernet/GbE_PCIe_CLK-*%
X129363975Y-118789411D02*
X129600244Y-118553142D01*
X130353142Y-117801283D02*
X131238399Y-117801283D01*
X134198645Y-103741037D02*
X134198645Y-103598645D01*
X133451283Y-104488399D02*
X134198645Y-103741037D01*
X129601283Y-118553142D02*
X130353142Y-117801283D01*
X129600244Y-118553142D02*
X129601283Y-118553142D01*
X131238399Y-117801283D02*
X133451283Y-115588399D01*
X129363975Y-119299718D02*
X129363975Y-118789411D01*
X129264851Y-119398842D02*
X129363975Y-119299718D01*
X133451283Y-115588399D02*
X133451283Y-104488399D01*
D35*
%TO.N,/GPIO/I2C4_SCL*%
X149800000Y-64050000D02*
X149100000Y-63350000D01*
X149800000Y-103390000D02*
X149800000Y-64050000D01*
%TO.N,/Fan/FAN_1_TAC*%
X111675384Y-102440801D02*
X111675384Y-72442098D01*
X112071064Y-104484556D02*
X112071064Y-102836481D01*
X111675384Y-72442098D02*
X112010721Y-72106761D01*
X112071064Y-102836481D02*
X111675384Y-102440801D01*
X112010721Y-72106761D02*
X112010721Y-72040466D01*
%TO.N,/GPIO/I2C5_SCL*%
X146827600Y-103048766D02*
X146827600Y-64357600D01*
X146827600Y-64357600D02*
X145970000Y-63500000D01*
D33*
%TO.N,/Gigabit Ethernet/GbE_PCIe_RX+*%
X125687928Y-114259702D02*
X125597860Y-114169634D01*
X125687942Y-116061070D02*
X125597874Y-115971002D01*
X125687928Y-114860158D02*
X125597860Y-114770090D01*
X125687928Y-117382074D02*
X125687928Y-117261982D01*
X125687928Y-113178882D02*
X125687928Y-113058790D01*
X125687928Y-117261982D02*
X125597860Y-117171914D01*
X125542526Y-120280062D02*
X125441840Y-120179376D01*
X125531908Y-119273510D02*
X125597860Y-119273510D01*
X125531908Y-113869406D02*
X125597874Y-113869406D01*
X125687928Y-112578426D02*
X125687928Y-112458334D01*
X125531908Y-116271230D02*
X125597874Y-116271230D01*
X125531908Y-117772370D02*
X125441840Y-117682302D01*
X125441840Y-114079566D02*
X125441840Y-113959474D01*
X125597874Y-113869406D02*
X125687942Y-113779338D01*
X125441840Y-113959474D02*
X125531908Y-113869406D01*
X125441840Y-112878654D02*
X125441840Y-112758562D01*
X125531908Y-114770090D02*
X125441840Y-114680022D01*
X125597860Y-113268950D02*
X125687928Y-113178882D01*
X125597874Y-116271230D02*
X125687942Y-116181162D01*
X125441840Y-112758562D02*
X125531908Y-112668494D01*
X125531908Y-118673054D02*
X125597860Y-118673054D01*
X125687928Y-116781618D02*
X125687928Y-116661526D01*
X125597860Y-117171914D02*
X125531908Y-117171914D01*
X125441840Y-117562210D02*
X125531908Y-117472142D01*
X125687942Y-116181162D02*
X125687942Y-116061070D01*
X125441840Y-115280478D02*
X125441840Y-115160386D01*
X125441840Y-114680022D02*
X125441840Y-114559930D01*
X125441840Y-115760842D02*
X125531908Y-115670774D01*
X125531908Y-115971002D02*
X125441840Y-115880934D01*
X125441840Y-118282758D02*
X125441840Y-118162666D01*
X125531908Y-112968722D02*
X125441840Y-112878654D01*
X125687942Y-117982530D02*
X125687942Y-117862438D01*
X125531908Y-112668494D02*
X125597860Y-112668494D01*
X125531908Y-113268950D02*
X125597860Y-113268950D01*
X125441840Y-116481390D02*
X125441840Y-116361298D01*
X125441840Y-117081846D02*
X125441840Y-116961754D01*
X125687928Y-114980250D02*
X125687928Y-114860158D01*
X125597874Y-118072598D02*
X125687942Y-117982530D01*
X126118419Y-103991899D02*
X125441840Y-104668478D01*
X125441840Y-116961754D02*
X125531908Y-116871686D01*
X125441840Y-118883214D02*
X125441840Y-118763122D01*
X125597860Y-115670774D02*
X125687928Y-115580706D01*
X125597860Y-119273510D02*
X125687928Y-119183442D01*
X125597860Y-112668494D02*
X125687928Y-112578426D01*
X125597860Y-114169634D02*
X125531908Y-114169634D01*
X125441840Y-117682302D02*
X125441840Y-117562210D01*
X125687942Y-113779338D02*
X125687942Y-113659246D01*
X125597860Y-112968722D02*
X125531908Y-112968722D01*
X126405776Y-103991899D02*
X126118419Y-103991899D01*
X125597874Y-117772370D02*
X125531908Y-117772370D01*
X125441840Y-115160386D02*
X125531908Y-115070318D01*
X125531908Y-116871686D02*
X125597860Y-116871686D01*
X125441840Y-114559930D02*
X125531908Y-114469862D01*
X125531908Y-114169634D02*
X125441840Y-114079566D01*
X125597860Y-115370546D02*
X125531908Y-115370546D01*
X125687942Y-113659246D02*
X125597874Y-113569178D01*
X125531908Y-118372826D02*
X125441840Y-118282758D01*
X125687928Y-112458334D02*
X125597860Y-112368266D01*
X125441840Y-118162666D02*
X125531908Y-118072598D01*
X125597860Y-118973282D02*
X125531908Y-118973282D01*
X125531908Y-115070318D02*
X125597860Y-115070318D01*
X125687928Y-119063350D02*
X125597860Y-118973282D01*
X125687928Y-113058790D02*
X125597860Y-112968722D01*
X125441840Y-120179376D02*
X125441840Y-119363578D01*
X125687928Y-115460614D02*
X125597860Y-115370546D01*
X125597860Y-114770090D02*
X125531908Y-114770090D01*
X125531908Y-118973282D02*
X125441840Y-118883214D01*
X125597860Y-114469862D02*
X125687928Y-114379794D01*
X125597860Y-118673054D02*
X125687928Y-118582986D01*
X125687928Y-115580706D02*
X125687928Y-115460614D01*
X125531908Y-117472142D02*
X125597860Y-117472142D01*
X125687928Y-114379794D02*
X125687928Y-114259702D01*
X125531908Y-112368266D02*
X125441840Y-112278198D01*
X125441840Y-119363578D02*
X125531908Y-119273510D01*
X125531908Y-118072598D02*
X125597874Y-118072598D01*
X125441840Y-113479110D02*
X125441840Y-113359018D01*
X125597860Y-117472142D02*
X125687928Y-117382074D01*
X125597860Y-112368266D02*
X125531908Y-112368266D01*
X125687928Y-118462894D02*
X125597860Y-118372826D01*
X125441840Y-115880934D02*
X125441840Y-115760842D01*
X126584955Y-104171078D02*
X126405776Y-103991899D01*
X125597860Y-116571458D02*
X125531908Y-116571458D01*
X125597860Y-116871686D02*
X125687928Y-116781618D01*
X125687928Y-116661526D02*
X125597860Y-116571458D01*
X125441840Y-118763122D02*
X125531908Y-118673054D01*
X125441840Y-113359018D02*
X125531908Y-113268950D01*
X125531908Y-113569178D02*
X125441840Y-113479110D01*
X125597860Y-118372826D02*
X125531908Y-118372826D01*
X125531908Y-115370546D02*
X125441840Y-115280478D01*
X125441840Y-112278198D02*
X125441840Y-110836633D01*
X125687942Y-117862438D02*
X125597874Y-117772370D01*
X125687928Y-119183442D02*
X125687928Y-119063350D01*
X125441840Y-116361298D02*
X125531908Y-116271230D01*
X125597860Y-115070318D02*
X125687928Y-114980250D01*
X125531908Y-117171914D02*
X125441840Y-117081846D01*
X125687928Y-118582986D02*
X125687928Y-118462894D01*
X125597874Y-115971002D02*
X125531908Y-115971002D01*
X125531908Y-115670774D02*
X125597860Y-115670774D01*
X125441840Y-104668478D02*
X125441840Y-110836633D01*
X125531908Y-116571458D02*
X125441840Y-116481390D01*
X125597874Y-113569178D02*
X125531908Y-113569178D01*
X125531908Y-114469862D02*
X125597860Y-114469862D01*
D35*
%TO.N,/GPIO/I2C4_SDA*%
X150375000Y-60871165D02*
X150375000Y-103350000D01*
X149107729Y-59418780D02*
X149107729Y-59603894D01*
X149107729Y-59603894D02*
X150375000Y-60871165D01*
D33*
%TO.N,/Gigabit Ethernet/GbE_PCIe_RX-*%
X126412084Y-103615092D02*
X126074590Y-103615092D01*
X126571073Y-103456103D02*
X126412084Y-103615092D01*
X126074590Y-103615092D02*
X125144406Y-104545276D01*
X125144406Y-120179376D02*
X125043720Y-120280062D01*
X125144406Y-104545276D02*
X125144406Y-120179376D01*
D35*
%TO.N,/GPIO/SOC_UART2_TX*%
X145802547Y-103063416D02*
X145899863Y-102966100D01*
X145899863Y-65700137D02*
X146152600Y-65447400D01*
X145899863Y-102966100D02*
X145899863Y-65700137D01*
X146152600Y-65447400D02*
X146350000Y-65447400D01*
%TO.N,/LattePanda Module/SUSCKL_WIFI*%
X144252159Y-79858991D02*
X144122702Y-79988448D01*
X86400000Y-90970000D02*
X86400000Y-90350000D01*
X144122702Y-111972702D02*
X144150000Y-112000000D01*
X86500000Y-113150000D02*
X86400000Y-113050000D01*
X86400000Y-92530000D02*
X86400000Y-91900000D01*
X86400000Y-113050000D02*
X86400000Y-92530000D01*
X86400000Y-91900000D02*
X86400000Y-90970000D01*
X144122702Y-79988448D02*
X144122702Y-111972702D01*
X86400000Y-90350000D02*
X86400000Y-84700000D01*
%TO.N,/GPIO/I2C5_SDA*%
X147427809Y-102439224D02*
X147427809Y-61327809D01*
X147374960Y-102492073D02*
X147427809Y-102439224D01*
X147427809Y-61327809D02*
X147200000Y-61100000D01*
D33*
%TO.N,/LattePanda Module/HSIO_0_TX+*%
X114801283Y-118918602D02*
X114801283Y-119398717D01*
X114801283Y-119398717D02*
X114700000Y-119500000D01*
X114650692Y-116534885D02*
X114650692Y-117000095D01*
X114751283Y-118868602D02*
X114801283Y-118918602D01*
X114650692Y-117000095D02*
X114751283Y-117100686D01*
X114751283Y-117100686D02*
X114751283Y-118868602D01*
%TO.N,/LattePanda Module/REFCLK3+*%
X131750000Y-109039682D02*
X132006755Y-109296437D01*
X132006755Y-109296437D02*
X132260573Y-109296437D01*
X131053665Y-85131615D02*
X131750000Y-85827950D01*
X131053665Y-84800493D02*
X131053665Y-85131615D01*
X131750000Y-85827950D02*
X131750000Y-109039682D01*
%TO.N,/LattePanda Module/REFCLK3-*%
X131923645Y-109635376D02*
X131923645Y-109776355D01*
X130531216Y-85333593D02*
X130813818Y-85333593D01*
X131451566Y-85971341D02*
X131451566Y-109163297D01*
X131451566Y-109163297D02*
X131923645Y-109635376D01*
X130813818Y-85333593D02*
X131451566Y-85971341D01*
%TO.N,/Gigabit Ethernet/GbE_PCIe_CLK+*%
X133530859Y-115929458D02*
X133748717Y-115711601D01*
X130476344Y-118098717D02*
X131361601Y-118098717D01*
X132215630Y-117458963D02*
X132172178Y-117415511D01*
X133748717Y-104611601D02*
X134408963Y-103951355D01*
X133445939Y-116141750D02*
X133445939Y-116014375D01*
X133277099Y-116397496D02*
X133404474Y-116397496D01*
X133445939Y-116014375D02*
X133530859Y-115929458D01*
X132596765Y-116863549D02*
X132681686Y-116778632D01*
X133748717Y-115711601D02*
X133748717Y-114571250D01*
X132979887Y-116822083D02*
X133064804Y-116737165D01*
X132003338Y-117671257D02*
X132130713Y-117671257D01*
X132384474Y-117203219D02*
X132427915Y-117246660D01*
X132215630Y-117586339D02*
X132215630Y-117458963D01*
X131959887Y-117627806D02*
X132003338Y-117671257D01*
X132640207Y-117034366D02*
X132596765Y-116990924D01*
X133064804Y-116609789D02*
X133021352Y-116566337D01*
X129679704Y-118895357D02*
X130476344Y-118098717D01*
X133021352Y-116566337D02*
X133021352Y-116438962D01*
X133106273Y-116354045D02*
X133233648Y-116354045D01*
X132257099Y-117203219D02*
X132384474Y-117203219D01*
X132172178Y-117288136D02*
X132257099Y-117203219D01*
X132172178Y-117415511D02*
X132172178Y-117288136D01*
X129763112Y-119375486D02*
X129679704Y-119292078D01*
X133021352Y-116438962D02*
X133106273Y-116354045D01*
X133233648Y-116354045D02*
X133277099Y-116397496D01*
X133404474Y-116397496D02*
X133489391Y-116312578D01*
X133489391Y-116312578D02*
X133489391Y-116185202D01*
X132681686Y-116778632D02*
X132809061Y-116778632D01*
X133489391Y-116185202D02*
X133445939Y-116141750D01*
X134408963Y-103951355D02*
X134551355Y-103951355D01*
X132596765Y-116990924D02*
X132596765Y-116863549D01*
X132640207Y-117161742D02*
X132640207Y-117034366D01*
X132809061Y-116778632D02*
X132852512Y-116822083D01*
X133064804Y-116737165D02*
X133064804Y-116609789D01*
X133748717Y-114571250D02*
X133748717Y-104611601D01*
X132427915Y-117246660D02*
X132555290Y-117246660D01*
X131361601Y-118098717D02*
X131832512Y-117627806D01*
X131832512Y-117627806D02*
X131959887Y-117627806D01*
X132852512Y-116822083D02*
X132979887Y-116822083D01*
X129679704Y-119292078D02*
X129679704Y-118895357D01*
X132555290Y-117246660D02*
X132640207Y-117161742D01*
X132130713Y-117671257D02*
X132215630Y-117586339D01*
%TO.N,/LattePanda Module/HSIO_3_RX+*%
X118898717Y-84048717D02*
X118898717Y-108337608D01*
X118250000Y-83400000D02*
X118898717Y-84048717D01*
X118250000Y-83200000D02*
X118250000Y-83400000D01*
X118898717Y-108337608D02*
X119214771Y-108653662D01*
%TO.N,/LattePanda Module/USB_2_P7+*%
X128050000Y-108500000D02*
X128050000Y-73900000D01*
X129152123Y-109223645D02*
X128773645Y-109223645D01*
X129173798Y-109168041D02*
X129173798Y-109201970D01*
X129173798Y-109201970D02*
X129152123Y-109223645D01*
X128773645Y-109223645D02*
X128050000Y-108500000D01*
D35*
%TO.N,/~{PLT_RST}*%
X94850000Y-93370000D02*
X94850000Y-109300000D01*
X94850000Y-109300000D02*
X94150000Y-110000000D01*
X128000000Y-113750000D02*
X128000000Y-110600000D01*
X127477054Y-120527480D02*
X128290385Y-119714149D01*
X128290385Y-119714149D02*
X128290385Y-114040385D01*
X130960084Y-110239916D02*
X131100000Y-110100000D01*
X130900000Y-109350000D02*
X130900000Y-93900000D01*
X128360084Y-110239916D02*
X130960084Y-110239916D01*
X131100000Y-109550000D02*
X130900000Y-109350000D01*
X124798957Y-121569669D02*
X125841146Y-120527480D01*
X131100000Y-110100000D02*
X131100000Y-109550000D01*
X125841146Y-120527480D02*
X127477054Y-120527480D01*
X130900000Y-93900000D02*
X130500000Y-93500000D01*
X94150000Y-110000000D02*
X94100000Y-110000000D01*
X94100000Y-85700000D02*
X94850000Y-86450000D01*
X94850000Y-86450000D02*
X94850000Y-93370000D01*
X128290385Y-114040385D02*
X128000000Y-113750000D01*
X128000000Y-110600000D02*
X128360084Y-110239916D01*
%TO.N,/Fan/FAN_1_PWM*%
X111173139Y-104291089D02*
X111415127Y-104533077D01*
X111867536Y-71197615D02*
X111173139Y-71892012D01*
X185489067Y-67359230D02*
X184247321Y-67359230D01*
X111173139Y-71892012D02*
X111173139Y-104291089D01*
X112244210Y-71197615D02*
X111867536Y-71197615D01*
%TO.N,/GPIO/I2C2_SCL*%
X152050940Y-60683644D02*
X152050940Y-103200663D01*
X151909154Y-60541858D02*
X152050940Y-60683644D01*
X111220362Y-57114891D02*
X111185253Y-57150000D01*
X152050940Y-103200663D02*
X151901603Y-103350000D01*
X151909154Y-59814503D02*
X151909154Y-60541858D01*
X110750000Y-57150000D02*
X110300000Y-57600000D01*
X111185253Y-57150000D02*
X110750000Y-57150000D01*
X110300000Y-57600000D02*
X110300000Y-60100000D01*
D33*
%TO.N,/LattePanda Module/USB_2_P7-*%
X128808962Y-109682173D02*
X128650029Y-109523240D01*
X128650029Y-109523240D02*
X128650029Y-109522079D01*
X129042048Y-109682173D02*
X128808962Y-109682173D01*
X127750000Y-108622050D02*
X127750000Y-74203279D01*
X129154074Y-109794199D02*
X129042048Y-109682173D01*
X127750000Y-74203279D02*
X127468486Y-73921765D01*
X128650029Y-109522079D02*
X127750000Y-108622050D01*
D35*
%TO.N,/GPIO/SOC_UART1_RX*%
X148886952Y-109272769D02*
X146700000Y-111459721D01*
X148873330Y-68475159D02*
X148886952Y-68488781D01*
X146700000Y-112000000D02*
X146685000Y-112015000D01*
X148886952Y-68488781D02*
X148886952Y-109272769D01*
X146700000Y-111459721D02*
X146700000Y-112000000D01*
D33*
%TO.N,/LattePanda Module/HSIO_3_TX-*%
X116351880Y-83122516D02*
X116351880Y-82098120D01*
X116351880Y-82098120D02*
X116208872Y-81955112D01*
X117454781Y-117576554D02*
X117454781Y-117396623D01*
X117152566Y-117094408D02*
X117152566Y-83923202D01*
X117454781Y-117396623D02*
X117152566Y-117094408D01*
X117152566Y-83923202D02*
X116351880Y-83122516D01*
D35*
%TO.N,/GPIO/I2C3_SDA*%
X151182507Y-59086698D02*
X151517656Y-59421847D01*
X151517656Y-103232344D02*
X151400000Y-103350000D01*
X151517656Y-59421847D02*
X151517656Y-103232344D01*
D33*
%TO.N,/USB 2.0 & 3.0/CON_USB4_SSRX_P*%
X118551283Y-110361601D02*
X118166037Y-109976355D01*
X118166037Y-109976355D02*
X118023645Y-109976355D01*
X118450597Y-119300000D02*
X118551283Y-119199314D01*
X118551283Y-119199314D02*
X118551283Y-110361601D01*
%TO.N,/USB 2.0 & 3.0/CON_USB3_D_P*%
X106451283Y-111938399D02*
X106824093Y-111565589D01*
X106366037Y-142023645D02*
X106451283Y-141938399D01*
X106451283Y-141938399D02*
X106451283Y-111938399D01*
X107467680Y-111565589D02*
X107568366Y-111464903D01*
X106223645Y-142023645D02*
X106366037Y-142023645D01*
X106824093Y-111565589D02*
X107467680Y-111565589D01*
D35*
%TO.N,Net-(A1-SIO_UART_TX)*%
X113800000Y-67550000D02*
X113850000Y-67550000D01*
X113850000Y-67550000D02*
X114200556Y-67900556D01*
X114200556Y-67900556D02*
X114200556Y-70748526D01*
X114397400Y-104002600D02*
X114100000Y-104300000D01*
X114200556Y-70748526D02*
X114397400Y-70945370D01*
X114397400Y-70945370D02*
X114397400Y-104002600D01*
%TO.N,/GPIO/SOC_UART2_RX*%
X146379684Y-102521372D02*
X146379684Y-67920316D01*
X146379684Y-67920316D02*
X146386177Y-67913823D01*
D33*
%TO.N,/Gigabit Ethernet/GbE_PCIe_TX+*%
X130111601Y-112451283D02*
X128800686Y-112451283D01*
X128800686Y-112451283D02*
X128700000Y-112350597D01*
X130686217Y-113025899D02*
X130111601Y-112451283D01*
X130786903Y-116800000D02*
X130686217Y-116699314D01*
X130686217Y-116699314D02*
X130686217Y-113025899D01*
%TO.N,/LattePanda Module/HSIO_0_TX-*%
X115048717Y-118750000D02*
X115098717Y-118800000D01*
X115098717Y-119398717D02*
X115200000Y-119500000D01*
X115048717Y-117100686D02*
X115048717Y-118750000D01*
X115098717Y-118800000D02*
X115098717Y-119398717D01*
X115149403Y-117000000D02*
X115048717Y-117100686D01*
X115149403Y-116525000D02*
X115149403Y-117000000D01*
D35*
%TO.N,/GPIO/GPP_D1*%
X143522703Y-103311996D02*
X143522703Y-65116682D01*
X143522703Y-65116682D02*
X143849146Y-64790239D01*
D33*
%TO.N,/LattePanda Module/HSIO_3_TX+*%
X116750000Y-83100000D02*
X116750000Y-81700000D01*
X117734379Y-117111145D02*
X117450000Y-116826766D01*
X117863855Y-117111145D02*
X117734379Y-117111145D01*
X117450000Y-116826766D02*
X117450000Y-83800000D01*
X117450000Y-83800000D02*
X116750000Y-83100000D01*
%TO.N,/LattePanda Module/HSIO_3_RX-*%
X117750000Y-83450000D02*
X117950000Y-83650000D01*
X118601283Y-84171919D02*
X118601283Y-108909651D01*
X118079364Y-83650000D02*
X118601283Y-84171919D01*
X117950000Y-83650000D02*
X118079364Y-83650000D01*
X118601283Y-108909651D02*
X118752430Y-109060798D01*
%TO.N,/USB 2.0 & 3.0/CON_USB4_D_P*%
X95438785Y-129452125D02*
X95487376Y-129452125D01*
X95438785Y-129752353D02*
X95348717Y-129842421D01*
X100500000Y-127874403D02*
X100399314Y-127773717D01*
X95487376Y-129151897D02*
X95438785Y-129151897D01*
X95348717Y-129362057D02*
X95438785Y-129452125D01*
X95487376Y-128851669D02*
X95577444Y-128941737D01*
X95348717Y-128761601D02*
X95438785Y-128851669D01*
X96199999Y-131849999D02*
X96199999Y-134215000D01*
X95438785Y-129151897D02*
X95348717Y-129241965D01*
X95577444Y-129542193D02*
X95577444Y-129662285D01*
X95487376Y-129752353D02*
X95438785Y-129752353D01*
X95438785Y-128851669D02*
X95487376Y-128851669D01*
X95348717Y-129241965D02*
X95348717Y-129362057D01*
X95577444Y-129061829D02*
X95487376Y-129151897D01*
X95577444Y-129662285D02*
X95487376Y-129752353D01*
X95487376Y-129452125D02*
X95577444Y-129542193D01*
X95348717Y-130998717D02*
X95786106Y-131436106D01*
X96336601Y-127773717D02*
X95348717Y-128761601D01*
X100399314Y-127773717D02*
X96336601Y-127773717D01*
X95577444Y-128941737D02*
X95577444Y-129061829D01*
X95786106Y-131436106D02*
X96199999Y-131849999D01*
X95348717Y-129842421D02*
X95348717Y-130998717D01*
%TO.N,/USB 2.0 & 3.0/CON_USB3_SSRX_N*%
X98398717Y-133210387D02*
X97748717Y-133860387D01*
X98349979Y-135699979D02*
X98565000Y-135915000D01*
X116634371Y-120312231D02*
X116650000Y-120296602D01*
X116450000Y-109853192D02*
X116448434Y-109851626D01*
X98349979Y-135139661D02*
X98349979Y-135699979D01*
X116650000Y-120196511D02*
X116450000Y-119996511D01*
X97748717Y-134538399D02*
X98349979Y-135139661D01*
X97699403Y-129500000D02*
X97598717Y-129600686D01*
X97598717Y-131038399D02*
X98398717Y-131838399D01*
X116498809Y-109801251D02*
X116498809Y-109500000D01*
X116448434Y-109851626D02*
X116498809Y-109801251D01*
X98565000Y-135915000D02*
X99199999Y-135915000D01*
X97748717Y-133860387D02*
X97748717Y-134538399D01*
X116650000Y-120296602D02*
X116650000Y-120196511D01*
X98398717Y-131838399D02*
X98398717Y-133210387D01*
X116450000Y-119996511D02*
X116450000Y-109853192D01*
X97598717Y-129600686D02*
X97598717Y-131038399D01*
%TO.N,/LattePanda Module/REFCLK0+*%
X103565321Y-111059082D02*
X104298717Y-110325686D01*
X103412038Y-111335063D02*
X103565321Y-111181780D01*
X104557076Y-108672976D02*
X104718457Y-108511595D01*
X104298717Y-110325686D02*
X104298717Y-108847983D01*
X104473724Y-108672976D02*
X104557076Y-108672976D01*
X103565321Y-111181780D02*
X103565321Y-111059082D01*
X104298717Y-108847983D02*
X104473724Y-108672976D01*
%TO.N,/USB 2.0 & 3.0/CON_USB4_SSRX_N*%
X118376355Y-109766037D02*
X118376355Y-109623645D01*
X118949403Y-119300000D02*
X118848717Y-119199314D01*
X118848717Y-110238399D02*
X118376355Y-109766037D01*
X118848717Y-119199314D02*
X118848717Y-110238399D01*
D35*
%TO.N,/GPIO/I2C2_SDA*%
X152886959Y-59751916D02*
X152886959Y-102913041D01*
X150886062Y-57771662D02*
X151294870Y-58180470D01*
X151294870Y-58180470D02*
X151315513Y-58180470D01*
X152886959Y-102913041D02*
X152450000Y-103350000D01*
X151315513Y-58180470D02*
X152886959Y-59751916D01*
%TO.N,/GPIO/GPP_D2*%
X144726600Y-103429661D02*
X144773447Y-103382814D01*
X144722400Y-66888207D02*
X144436941Y-66602748D01*
X144436941Y-66602748D02*
X144402748Y-66602748D01*
X144773447Y-103382814D02*
X144773447Y-69157455D01*
X144722400Y-69106408D02*
X144722400Y-66888207D01*
X144773447Y-69157455D02*
X144722400Y-69106408D01*
D33*
%TO.N,/LattePanda Module/REFCLK0-*%
X104449622Y-108066634D02*
X104457998Y-108066634D01*
X104001283Y-108665741D02*
X104264865Y-108402159D01*
X103374542Y-110596385D02*
X103607382Y-110596385D01*
X103607382Y-110596385D02*
X104001283Y-110202484D01*
X104264865Y-108251391D02*
X104449622Y-108066634D01*
X104001283Y-110202484D02*
X104001283Y-108665741D01*
X104264865Y-108402159D02*
X104264865Y-108251391D01*
D35*
%TO.N,/GPIO/SOC_UART0_RX*%
X145450000Y-110891271D02*
X145450000Y-112050000D01*
X147984786Y-70188061D02*
X147984786Y-108356485D01*
X147984786Y-108356485D02*
X145450000Y-110891271D01*
X147960395Y-70163670D02*
X147984786Y-70188061D01*
%TO.N,/GPIO/I2C3_SCL*%
X111074453Y-60686269D02*
X111074453Y-59860807D01*
X150554932Y-59845185D02*
X151000000Y-60290253D01*
X151000000Y-103226603D02*
X150876603Y-103350000D01*
X111700000Y-59235260D02*
X111700000Y-58700000D01*
X111074453Y-59860807D02*
X111700000Y-59235260D01*
X151000000Y-60290253D02*
X151000000Y-103226603D01*
X110574944Y-61185778D02*
X111074453Y-60686269D01*
X110574944Y-61193323D02*
X110574944Y-61185778D01*
%TO.N,/~{WAKE}*%
X136850000Y-112650000D02*
X137000000Y-112800000D01*
X95400000Y-86900000D02*
X95400000Y-86800000D01*
X136850000Y-88150000D02*
X136850000Y-109050000D01*
X95450000Y-86950000D02*
X95400000Y-86900000D01*
X136850000Y-109050000D02*
X136850000Y-112650000D01*
X95200000Y-110700000D02*
X95450000Y-110450000D01*
X95400000Y-86800000D02*
X95500000Y-86700000D01*
X136500000Y-87800000D02*
X136850000Y-88150000D01*
X95450000Y-110450000D02*
X95450000Y-86950000D01*
D34*
%TO.N,+3V3*%
X162327781Y-129771099D02*
X157919881Y-134178999D01*
D38*
X195313761Y-99563761D02*
X194810430Y-99563761D01*
D34*
X157919881Y-134178999D02*
X157919881Y-134343036D01*
D38*
X200650000Y-104900000D02*
X195313761Y-99563761D01*
X200650000Y-111550000D02*
X200650000Y-104900000D01*
D39*
%TO.N,5V_HDMI_VCC*%
X170250000Y-133950000D02*
X170250000Y-134250000D01*
X170250000Y-134250000D02*
X169250000Y-135250000D01*
X169250000Y-135250000D02*
X168500000Y-135250000D01*
D33*
%TO.N,/USB 2.0 & 3.0/CON_USB3_SSTX_N*%
X93098717Y-133788399D02*
X93098717Y-135048717D01*
X93136837Y-130650861D02*
X93009461Y-130650861D01*
X93434049Y-130226273D02*
X93349129Y-130311189D01*
X92966056Y-130904668D02*
X92966056Y-131032044D01*
X92753763Y-131116963D02*
X92712249Y-131075449D01*
X93874403Y-129200000D02*
X93773717Y-129300686D01*
X93199999Y-135149999D02*
X93199999Y-135915000D01*
X92712249Y-131075449D02*
X92584873Y-131075449D01*
X93815232Y-130182868D02*
X93730313Y-130267788D01*
X92348717Y-131600000D02*
X92348717Y-133038399D01*
X93390644Y-130480080D02*
X93390644Y-130607456D01*
X92584873Y-131075449D02*
X92499954Y-131160365D01*
X93349129Y-130438565D02*
X93390644Y-130480080D01*
X93773717Y-130013977D02*
X93815232Y-130055492D01*
X93390644Y-130607456D02*
X93305725Y-130692376D01*
X93815232Y-130055492D02*
X93815232Y-130182868D01*
X92499954Y-131160365D02*
X92348717Y-131311601D01*
X92924541Y-130735777D02*
X92924541Y-130863153D01*
X92348717Y-131311601D02*
X92348717Y-131600000D01*
X93773717Y-129760000D02*
X93773717Y-130013977D01*
X93178351Y-130692375D02*
X93136837Y-130650861D01*
X93602939Y-130267787D02*
X93561425Y-130226273D01*
X93305725Y-130692376D02*
X93178351Y-130692375D01*
X93009461Y-130650861D02*
X92924541Y-130735777D01*
X93730313Y-130267788D02*
X93602939Y-130267787D01*
X92966056Y-131032044D02*
X92881137Y-131116964D01*
X93349129Y-130311189D02*
X93349129Y-130438565D01*
X92881137Y-131116964D02*
X92753763Y-131116963D01*
X92348717Y-133038399D02*
X93098717Y-133788399D01*
X93773717Y-129300686D02*
X93773717Y-129760000D01*
X92924541Y-130863153D02*
X92966056Y-130904668D01*
X93098717Y-135048717D02*
X93199999Y-135149999D01*
X93561425Y-130226273D02*
X93434049Y-130226273D01*
%TO.N,/USB 2.0 & 3.0/CON_USB3_SSTX_P*%
X92801283Y-133911601D02*
X92801283Y-134698717D01*
X93375597Y-129200000D02*
X93476283Y-129300686D01*
X93476283Y-129763399D02*
X92051283Y-131188399D01*
X93476283Y-129300686D02*
X93476283Y-129763399D01*
X92801283Y-134698717D02*
X91585000Y-135915000D01*
X92051283Y-133161601D02*
X92801283Y-133911601D01*
X92051283Y-131188399D02*
X92051283Y-133161601D01*
D36*
%TO.N,+5V*%
X105219686Y-146201000D02*
X105133978Y-146115292D01*
D39*
X163693613Y-136312765D02*
X164187708Y-135818670D01*
D36*
X163887794Y-146115292D02*
X106466022Y-146115292D01*
X83722283Y-146115292D02*
X81321381Y-143714390D01*
X183542729Y-92254228D02*
X183542729Y-103462761D01*
X165215122Y-144764648D02*
X165215122Y-144787964D01*
X187142813Y-117314620D02*
X192262932Y-122434739D01*
X165215122Y-144787964D02*
X163887794Y-146115292D01*
X183542729Y-103462761D02*
X187142813Y-107062845D01*
X192262932Y-122434739D02*
X192262932Y-141503386D01*
X191960885Y-141805433D02*
X168174337Y-141805433D01*
X106466022Y-146115292D02*
X106380314Y-146201000D01*
X105133978Y-146115292D02*
X83722283Y-146115292D01*
X196527728Y-75159856D02*
X193079540Y-75159856D01*
X187142813Y-107062845D02*
X187142813Y-117314620D01*
X190246594Y-85550363D02*
X183542729Y-92254228D01*
X190246594Y-77992802D02*
X190246594Y-85550363D01*
X81321381Y-140793119D02*
X81260522Y-140732260D01*
X193079540Y-75159856D02*
X190246594Y-77992802D01*
D39*
X163693613Y-145493873D02*
X163693613Y-136312765D01*
D36*
X81321381Y-143714390D02*
X81321381Y-140793119D01*
X192262932Y-141503386D02*
X191960885Y-141805433D01*
X168174337Y-141805433D02*
X165215122Y-144764648D01*
X106380314Y-146201000D02*
X105219686Y-146201000D01*
D35*
%TO.N,Net-(U16-SW)*%
X194072534Y-89249633D02*
X193409297Y-88586396D01*
X198908138Y-89249633D02*
X194072534Y-89249633D01*
D40*
%TO.N,/Power Supply/PWR_C_D-*%
X218384403Y-92762179D02*
X218524174Y-92762179D01*
X218568135Y-91432235D02*
X218568135Y-91794121D01*
X217882143Y-90746243D02*
X218568135Y-91432235D01*
X217959599Y-90823698D02*
X217959599Y-92337375D01*
X217882143Y-90746243D02*
X217959599Y-90823698D01*
X217959599Y-92337375D02*
X218384403Y-92762179D01*
D35*
%TO.N,/Power Supply/CC2*%
X210994052Y-86829347D02*
X208243680Y-89579719D01*
X224219776Y-87573343D02*
X223475780Y-86829347D01*
X223475780Y-86829347D02*
X210994052Y-86829347D01*
X223176333Y-90320964D02*
X223436428Y-90320964D01*
X224219776Y-89537616D02*
X224219776Y-87573343D01*
X223436428Y-90320964D02*
X224219776Y-89537616D01*
%TO.N,Net-(U6-LED2)*%
X132825000Y-143525000D02*
X131600000Y-144750000D01*
X129050000Y-144750000D02*
X126250000Y-141950000D01*
X131600000Y-144750000D02*
X129050000Y-144750000D01*
X126250000Y-141950000D02*
X126250000Y-128750000D01*
X140085000Y-143525000D02*
X132825000Y-143525000D01*
X126250000Y-128750000D02*
X129000000Y-126000000D01*
%TO.N,Net-(U6-LED1)*%
X128475000Y-143525000D02*
X129975000Y-143525000D01*
X126550000Y-141600000D02*
X128475000Y-143525000D01*
X126550000Y-129000000D02*
X126550000Y-141600000D01*
X129550000Y-126000000D02*
X126550000Y-129000000D01*
X129550000Y-125950000D02*
X129550000Y-126000000D01*
%TO.N,Net-(Q4-D)*%
X180700000Y-128100000D02*
X179000000Y-128100000D01*
X183400000Y-128100000D02*
X181700000Y-128100000D01*
X179000000Y-128100000D02*
X178000000Y-128100000D01*
X185400000Y-128200000D02*
X183500000Y-128200000D01*
X173800000Y-128100000D02*
X175300000Y-128100000D01*
X176300000Y-128100000D02*
X178000000Y-128100000D01*
X181700000Y-128100000D02*
X180700000Y-128100000D01*
X175300000Y-128100000D02*
X176300000Y-128100000D01*
X183500000Y-128200000D02*
X183400000Y-128100000D01*
%TO.N,/Power Supply/CC1*%
X212848388Y-96715233D02*
X219289478Y-96715233D01*
X209066173Y-90620773D02*
X210323082Y-91877682D01*
X210323082Y-94189927D02*
X212848388Y-96715233D01*
X208257517Y-90620773D02*
X209066173Y-90620773D01*
X224177151Y-96828607D02*
X224177151Y-94057246D01*
X223400393Y-93280488D02*
X222943351Y-93280488D01*
X210323082Y-91877682D02*
X210323082Y-94189927D01*
X219969721Y-97395476D02*
X223635476Y-97395476D01*
X223635476Y-97395476D02*
X224189748Y-96841204D01*
X219289478Y-96715233D02*
X219969721Y-97395476D01*
X224177151Y-94057246D02*
X223400393Y-93280488D01*
X224189748Y-96841204D02*
X224177151Y-96828607D01*
%TD*%
%TA.AperFunction,Conductor*%
%TO.N,VDC*%
G36*
X209646528Y-81235159D02*
G01*
X209658341Y-81245248D01*
X210243621Y-81830528D01*
X210271398Y-81885045D01*
X210272617Y-81900532D01*
X210272617Y-85643130D01*
X210253710Y-85701321D01*
X210204210Y-85737285D01*
X210173617Y-85742130D01*
X204529117Y-85742130D01*
X204276403Y-85994844D01*
X204276403Y-85994845D01*
X204276403Y-92409530D01*
X204273934Y-92417127D01*
X204275184Y-92425017D01*
X204264659Y-92445672D01*
X204257496Y-92467721D01*
X204247407Y-92479534D01*
X204167555Y-92559386D01*
X204113038Y-92587163D01*
X204097551Y-92588382D01*
X199803577Y-92588382D01*
X199745386Y-92569475D01*
X199709422Y-92519975D01*
X199704577Y-92489382D01*
X199704577Y-86946630D01*
X200284760Y-86946630D01*
X200284760Y-87052084D01*
X200306540Y-87133369D01*
X200312054Y-87153946D01*
X200312054Y-87153947D01*
X200364778Y-87245267D01*
X200364780Y-87245270D01*
X200439347Y-87319837D01*
X200530673Y-87372564D01*
X200632533Y-87399857D01*
X200632535Y-87399857D01*
X200737985Y-87399857D01*
X200737987Y-87399857D01*
X200839847Y-87372564D01*
X200931173Y-87319837D01*
X201005740Y-87245270D01*
X201058467Y-87153944D01*
X201085760Y-87052084D01*
X201085760Y-86946630D01*
X201058467Y-86844770D01*
X201058466Y-86844768D01*
X201058465Y-86844766D01*
X201052670Y-86834729D01*
X201894718Y-86834729D01*
X201894718Y-86940183D01*
X201922011Y-87042043D01*
X201922012Y-87042045D01*
X201922012Y-87042046D01*
X201974736Y-87133366D01*
X201974738Y-87133369D01*
X202049305Y-87207936D01*
X202140631Y-87260663D01*
X202242491Y-87287956D01*
X202242493Y-87287956D01*
X202347943Y-87287956D01*
X202347945Y-87287956D01*
X202449805Y-87260663D01*
X202541131Y-87207936D01*
X202615698Y-87133369D01*
X202668425Y-87042043D01*
X202695718Y-86940183D01*
X202695718Y-86834729D01*
X202668425Y-86732869D01*
X202615698Y-86641543D01*
X202541131Y-86566976D01*
X202449805Y-86514249D01*
X202347945Y-86486956D01*
X202242491Y-86486956D01*
X202140631Y-86514249D01*
X202140630Y-86514249D01*
X202140628Y-86514250D01*
X202140627Y-86514250D01*
X202049307Y-86566974D01*
X201974736Y-86641545D01*
X201922012Y-86732865D01*
X201922012Y-86732866D01*
X201922011Y-86732868D01*
X201922011Y-86732869D01*
X201894718Y-86834729D01*
X201052670Y-86834729D01*
X201005741Y-86753446D01*
X201005740Y-86753444D01*
X200931173Y-86678877D01*
X200921494Y-86673289D01*
X200839849Y-86626151D01*
X200839848Y-86626150D01*
X200839847Y-86626150D01*
X200737987Y-86598857D01*
X200632533Y-86598857D01*
X200530673Y-86626150D01*
X200530672Y-86626150D01*
X200530670Y-86626151D01*
X200530669Y-86626151D01*
X200439349Y-86678875D01*
X200364778Y-86753446D01*
X200312054Y-86844766D01*
X200312054Y-86844767D01*
X200312054Y-86844768D01*
X200312053Y-86844770D01*
X200284760Y-86946630D01*
X199704577Y-86946630D01*
X199704577Y-81877558D01*
X199723484Y-81819367D01*
X199733573Y-81807554D01*
X200295879Y-81245248D01*
X200350396Y-81217471D01*
X200365883Y-81216252D01*
X209588337Y-81216252D01*
X209646528Y-81235159D01*
G37*
%TD.AperFunction*%
%TD*%
%TA.AperFunction,Conductor*%
%TO.N,+5V*%
G36*
X193896516Y-132061646D02*
G01*
X193908329Y-132071735D01*
X194279178Y-132442584D01*
X194306955Y-132497101D01*
X194308174Y-132512588D01*
X194308174Y-139860809D01*
X194289267Y-139919000D01*
X194239767Y-139954964D01*
X194209174Y-139959809D01*
X190855489Y-139959809D01*
X190797298Y-139940902D01*
X190761334Y-139891402D01*
X190756489Y-139860809D01*
X190756489Y-133384243D01*
X190748953Y-133366050D01*
X190750358Y-133365467D01*
X190735715Y-133336723D01*
X190734497Y-133321243D01*
X190734497Y-132171715D01*
X190736965Y-132164117D01*
X190735716Y-132156228D01*
X190746240Y-132135572D01*
X190753404Y-132113524D01*
X190763493Y-132101711D01*
X190793469Y-132071735D01*
X190847986Y-132043958D01*
X190863473Y-132042739D01*
X193838325Y-132042739D01*
X193896516Y-132061646D01*
G37*
%TD.AperFunction*%
%TD*%
%TA.AperFunction,Conductor*%
%TO.N,VDC*%
G36*
X226436084Y-102662085D02*
G01*
X226456726Y-102678718D01*
X226535425Y-102757417D01*
X226568909Y-102818738D01*
X226571743Y-102845097D01*
X226571743Y-107246564D01*
X226563098Y-107276004D01*
X226556575Y-107305991D01*
X226552820Y-107311006D01*
X226552058Y-107313603D01*
X226535424Y-107334245D01*
X226373904Y-107495765D01*
X226312581Y-107529250D01*
X226286223Y-107532084D01*
X208977801Y-107532084D01*
X208910762Y-107512399D01*
X208865007Y-107459595D01*
X208853801Y-107408084D01*
X208853801Y-102849867D01*
X208873486Y-102782828D01*
X208890120Y-102762186D01*
X208973587Y-102678719D01*
X209034910Y-102645234D01*
X209061268Y-102642400D01*
X226369045Y-102642400D01*
X226436084Y-102662085D01*
G37*
%TD.AperFunction*%
%TD*%
%TA.AperFunction,Conductor*%
%TO.N,+5V*%
G36*
X83059191Y-132438303D02*
G01*
X83095155Y-132487803D01*
X83100000Y-132518396D01*
X83100000Y-142397757D01*
X83097531Y-142405354D01*
X83098781Y-142413244D01*
X83088256Y-142433899D01*
X83081093Y-142455948D01*
X83071004Y-142467761D01*
X83041435Y-142497330D01*
X82986918Y-142525107D01*
X82971431Y-142526326D01*
X79281444Y-142526326D01*
X79223253Y-142507419D01*
X79187289Y-142457919D01*
X79182444Y-142427326D01*
X79182444Y-132864681D01*
X79201351Y-132806490D01*
X79211440Y-132794677D01*
X79557725Y-132448392D01*
X79612242Y-132420615D01*
X79627729Y-132419396D01*
X83001000Y-132419396D01*
X83059191Y-132438303D01*
G37*
%TD.AperFunction*%
%TD*%
%TA.AperFunction,Conductor*%
%TO.N,+3V3*%
G36*
X189704229Y-87887233D02*
G01*
X189747494Y-87930498D01*
X189758284Y-87975443D01*
X189758284Y-92306524D01*
X190754611Y-93302851D01*
X190754611Y-93302850D01*
X190754612Y-93302851D01*
X191091595Y-93287804D01*
X195042926Y-93111379D01*
X195101901Y-93127671D01*
X195140037Y-93175518D01*
X195145980Y-93201839D01*
X195872170Y-101687740D01*
X195870824Y-101714484D01*
X195601869Y-103144194D01*
X195572530Y-103197886D01*
X195517234Y-103224078D01*
X195499713Y-103224771D01*
X192827648Y-103093358D01*
X192808072Y-103090414D01*
X189070108Y-102138189D01*
X189024543Y-102112257D01*
X187237280Y-100324994D01*
X187209503Y-100270477D01*
X187208284Y-100254990D01*
X187208284Y-100061092D01*
X191434711Y-100061092D01*
X191434711Y-100166546D01*
X191462004Y-100268406D01*
X191462005Y-100268408D01*
X191462005Y-100268409D01*
X191494675Y-100324994D01*
X191514731Y-100359732D01*
X191589298Y-100434299D01*
X191680624Y-100487026D01*
X191782484Y-100514319D01*
X191782486Y-100514319D01*
X191887936Y-100514319D01*
X191887938Y-100514319D01*
X191989798Y-100487026D01*
X192081124Y-100434299D01*
X192155691Y-100359732D01*
X192208418Y-100268406D01*
X192235711Y-100166546D01*
X192235711Y-100061092D01*
X192208418Y-99959232D01*
X192155691Y-99867906D01*
X192081124Y-99793339D01*
X191989798Y-99740612D01*
X191887938Y-99713319D01*
X191782484Y-99713319D01*
X191680624Y-99740612D01*
X191680623Y-99740612D01*
X191680621Y-99740613D01*
X191680620Y-99740613D01*
X191589300Y-99793337D01*
X191514729Y-99867908D01*
X191462005Y-99959228D01*
X191462005Y-99959229D01*
X191462004Y-99959231D01*
X191462004Y-99959232D01*
X191434711Y-100061092D01*
X187208284Y-100061092D01*
X187208284Y-98577852D01*
X191410593Y-98577852D01*
X191410593Y-98683306D01*
X191437886Y-98785166D01*
X191437887Y-98785168D01*
X191437887Y-98785169D01*
X191490611Y-98876489D01*
X191490613Y-98876492D01*
X191565180Y-98951059D01*
X191656506Y-99003786D01*
X191758366Y-99031079D01*
X191758368Y-99031079D01*
X191863818Y-99031079D01*
X191863820Y-99031079D01*
X191965680Y-99003786D01*
X192057006Y-98951059D01*
X192131573Y-98876492D01*
X192184300Y-98785166D01*
X192211593Y-98683306D01*
X192211593Y-98577852D01*
X192184300Y-98475992D01*
X192131573Y-98384666D01*
X192057006Y-98310099D01*
X191965680Y-98257372D01*
X191863820Y-98230079D01*
X191758366Y-98230079D01*
X191656506Y-98257372D01*
X191656505Y-98257372D01*
X191656503Y-98257373D01*
X191656502Y-98257373D01*
X191565182Y-98310097D01*
X191490611Y-98384668D01*
X191437887Y-98475988D01*
X191437887Y-98475989D01*
X191437886Y-98475991D01*
X191437886Y-98475992D01*
X191410593Y-98577852D01*
X187208284Y-98577852D01*
X187208284Y-96998141D01*
X191422652Y-96998141D01*
X191422652Y-97103595D01*
X191449945Y-97205455D01*
X191449946Y-97205457D01*
X191449946Y-97205458D01*
X191502670Y-97296778D01*
X191502672Y-97296781D01*
X191577239Y-97371348D01*
X191668565Y-97424075D01*
X191770425Y-97451368D01*
X191770427Y-97451368D01*
X191875877Y-97451368D01*
X191875879Y-97451368D01*
X191977739Y-97424075D01*
X192069065Y-97371348D01*
X192143632Y-97296781D01*
X192196359Y-97205455D01*
X192223652Y-97103595D01*
X192223652Y-96998141D01*
X192196359Y-96896281D01*
X192143632Y-96804955D01*
X192069065Y-96730388D01*
X191977739Y-96677661D01*
X191875879Y-96650368D01*
X191770425Y-96650368D01*
X191668565Y-96677661D01*
X191668564Y-96677661D01*
X191668562Y-96677662D01*
X191668561Y-96677662D01*
X191577241Y-96730386D01*
X191502670Y-96804957D01*
X191449946Y-96896277D01*
X191449946Y-96896278D01*
X191449945Y-96896280D01*
X191449945Y-96896281D01*
X191422652Y-96998141D01*
X187208284Y-96998141D01*
X187208284Y-95719902D01*
X191446770Y-95719902D01*
X191446770Y-95825356D01*
X191474063Y-95927216D01*
X191474064Y-95927218D01*
X191474064Y-95927219D01*
X191526788Y-96018539D01*
X191526790Y-96018542D01*
X191601357Y-96093109D01*
X191692683Y-96145836D01*
X191794543Y-96173129D01*
X191794545Y-96173129D01*
X191899995Y-96173129D01*
X191899997Y-96173129D01*
X192001857Y-96145836D01*
X192093183Y-96093109D01*
X192167750Y-96018542D01*
X192220477Y-95927216D01*
X192247770Y-95825356D01*
X192247770Y-95719902D01*
X192220477Y-95618042D01*
X192167750Y-95526716D01*
X192093183Y-95452149D01*
X192001857Y-95399422D01*
X191899997Y-95372129D01*
X191794543Y-95372129D01*
X191692683Y-95399422D01*
X191692682Y-95399422D01*
X191692680Y-95399423D01*
X191692679Y-95399423D01*
X191601359Y-95452147D01*
X191526788Y-95526718D01*
X191474064Y-95618038D01*
X191474064Y-95618039D01*
X191474063Y-95618041D01*
X191474063Y-95618042D01*
X191446770Y-95719902D01*
X187208284Y-95719902D01*
X187208284Y-94417544D01*
X191555300Y-94417544D01*
X191555300Y-94522998D01*
X191570073Y-94578131D01*
X191582594Y-94624860D01*
X191582594Y-94624861D01*
X191608342Y-94669457D01*
X191635320Y-94716184D01*
X191709887Y-94790751D01*
X191801213Y-94843478D01*
X191903073Y-94870771D01*
X191903075Y-94870771D01*
X192008525Y-94870771D01*
X192008527Y-94870771D01*
X192110387Y-94843478D01*
X192201713Y-94790751D01*
X192276280Y-94716184D01*
X192329007Y-94624858D01*
X192356300Y-94522998D01*
X192356300Y-94417544D01*
X192329007Y-94315684D01*
X192276280Y-94224358D01*
X192201713Y-94149791D01*
X192110387Y-94097064D01*
X192008527Y-94069771D01*
X191903073Y-94069771D01*
X191801213Y-94097064D01*
X191801212Y-94097064D01*
X191801210Y-94097065D01*
X191801209Y-94097065D01*
X191709889Y-94149789D01*
X191635318Y-94224360D01*
X191582594Y-94315680D01*
X191582594Y-94315681D01*
X191582593Y-94315683D01*
X191582593Y-94315684D01*
X191555300Y-94417544D01*
X187208284Y-94417544D01*
X187208284Y-91133293D01*
X186977279Y-91364298D01*
X186922763Y-91392075D01*
X186907276Y-91393294D01*
X186340435Y-91393294D01*
X186282244Y-91374387D01*
X186246280Y-91324887D01*
X186246280Y-91263701D01*
X186270431Y-91224290D01*
X188753737Y-88740983D01*
X189589282Y-87905437D01*
X189643797Y-87877662D01*
X189704229Y-87887233D01*
G37*
%TD.AperFunction*%
%TD*%
%TA.AperFunction,Conductor*%
%TO.N,+15V*%
G36*
X219829288Y-88156140D02*
G01*
X219865252Y-88205640D01*
X219867436Y-88219436D01*
X219870096Y-88225857D01*
X219870097Y-88225858D01*
X219870097Y-88225859D01*
X220626252Y-88982014D01*
X220654028Y-89036529D01*
X220655247Y-89052016D01*
X220655247Y-95937363D01*
X220636340Y-95995554D01*
X220626251Y-96007367D01*
X220450545Y-96183073D01*
X220396028Y-96210850D01*
X220380541Y-96212069D01*
X218875021Y-96212069D01*
X218816830Y-96193162D01*
X218805017Y-96183073D01*
X218597131Y-95975187D01*
X218569354Y-95920670D01*
X218568135Y-95905183D01*
X218568135Y-94827319D01*
X218587042Y-94769128D01*
X218597125Y-94757321D01*
X218865666Y-94488781D01*
X218865666Y-92998225D01*
X218878929Y-92948725D01*
X218897381Y-92916766D01*
X218924674Y-92814906D01*
X218924674Y-92709452D01*
X218897381Y-92607592D01*
X218892052Y-92598363D01*
X218878929Y-92575631D01*
X218865666Y-92526132D01*
X218865666Y-92103547D01*
X218884573Y-92045356D01*
X218886124Y-92043279D01*
X218888608Y-92040040D01*
X218888615Y-92040034D01*
X218941342Y-91948708D01*
X218968635Y-91846848D01*
X218968635Y-91741394D01*
X218941342Y-91639534D01*
X218888615Y-91548208D01*
X218885371Y-91542589D01*
X218886623Y-91541865D01*
X218868669Y-91491142D01*
X218868665Y-91491012D01*
X218868635Y-91489799D01*
X218868635Y-91392673D01*
X218865987Y-91382792D01*
X218865696Y-91371008D01*
X218865898Y-91370327D01*
X218865666Y-91368559D01*
X218865666Y-88236233D01*
X218884573Y-88178042D01*
X218934073Y-88142078D01*
X218964666Y-88137233D01*
X219771097Y-88137233D01*
X219829288Y-88156140D01*
G37*
%TD.AperFunction*%
%TD*%
%TA.AperFunction,Conductor*%
%TO.N,GND*%
G36*
X182301420Y-100118907D02*
G01*
X182337384Y-100168407D01*
X182342229Y-100199000D01*
X182342229Y-103557245D01*
X182371787Y-103743874D01*
X182371789Y-103743879D01*
X182430182Y-103923593D01*
X182515969Y-104091960D01*
X182627039Y-104244835D01*
X183133663Y-104751459D01*
X183213200Y-104830996D01*
X183240977Y-104885513D01*
X183231406Y-104945945D01*
X183188141Y-104989210D01*
X183143196Y-105000000D01*
X181026617Y-105000000D01*
X180968426Y-104981093D01*
X180956613Y-104971004D01*
X180505278Y-104519669D01*
X180477501Y-104465152D01*
X180476282Y-104449665D01*
X180476282Y-104213695D01*
X180446723Y-104027066D01*
X180446722Y-104027062D01*
X180388329Y-103847348D01*
X180302542Y-103678981D01*
X180191472Y-103526106D01*
X180191469Y-103526103D01*
X179968996Y-103303629D01*
X179941219Y-103249113D01*
X179940000Y-103233626D01*
X179940000Y-100199000D01*
X179958907Y-100140809D01*
X180008407Y-100104845D01*
X180039000Y-100100000D01*
X182243229Y-100100000D01*
X182301420Y-100118907D01*
G37*
%TD.AperFunction*%
%TD*%
%TA.AperFunction,Conductor*%
%TO.N,Net-(U6-LED1)*%
G36*
X129453705Y-142744892D02*
G01*
X129454315Y-142745720D01*
X129971642Y-143518491D01*
X129973396Y-143527273D01*
X129971642Y-143531509D01*
X129454196Y-144304456D01*
X129446746Y-144309424D01*
X129437964Y-144307670D01*
X129437315Y-144307200D01*
X129319035Y-144215198D01*
X129317787Y-144214073D01*
X129220953Y-144113302D01*
X129220044Y-144112235D01*
X129144989Y-144012601D01*
X129144515Y-144011924D01*
X129082429Y-143916118D01*
X129082385Y-143916048D01*
X129044744Y-143857050D01*
X128956888Y-143742534D01*
X128956887Y-143742533D01*
X128861806Y-143667583D01*
X128861803Y-143667582D01*
X128803130Y-143639879D01*
X128734021Y-143618969D01*
X128734018Y-143618968D01*
X128646732Y-143604870D01*
X128646734Y-143604870D01*
X128554404Y-143600524D01*
X128546301Y-143596712D01*
X128543254Y-143588837D01*
X128543254Y-143461086D01*
X128546681Y-143452813D01*
X128554323Y-143449403D01*
X128659473Y-143443741D01*
X128755194Y-143425717D01*
X128833693Y-143397060D01*
X128898243Y-143358902D01*
X128952117Y-143312374D01*
X128998590Y-143258606D01*
X129082428Y-143133881D01*
X129170389Y-143001402D01*
X129171257Y-143000258D01*
X129291545Y-142860675D01*
X129293057Y-142859213D01*
X129437257Y-142743115D01*
X129445848Y-142740597D01*
X129453705Y-142744892D01*
G37*
%TD.AperFunction*%
%TD*%
%TA.AperFunction,Conductor*%
%TO.N,/USB 2.0 & 3.0/CON_USB3_SSRX_N*%
G36*
X98873145Y-135425950D02*
G01*
X98873922Y-135426984D01*
X99138652Y-135822903D01*
X99194190Y-135905962D01*
X99195940Y-135914744D01*
X99190967Y-135922191D01*
X99190948Y-135922204D01*
X98710448Y-136242129D01*
X98701663Y-136243861D01*
X98694511Y-136239284D01*
X98547941Y-136038308D01*
X98547937Y-136038303D01*
X98411847Y-135898973D01*
X98288239Y-135778477D01*
X98284707Y-135770248D01*
X98288028Y-135761932D01*
X98412602Y-135637357D01*
X98420874Y-135633931D01*
X98428422Y-135636691D01*
X98430957Y-135638831D01*
X98462110Y-135665132D01*
X98500278Y-135684409D01*
X98525904Y-135688104D01*
X98535593Y-135689502D01*
X98535593Y-135689501D01*
X98535596Y-135689502D01*
X98568948Y-135682326D01*
X98633296Y-135638831D01*
X98700400Y-135569248D01*
X98700405Y-135569241D01*
X98700450Y-135569196D01*
X98728080Y-135539828D01*
X98759143Y-135506813D01*
X98760102Y-135505904D01*
X98856660Y-135424541D01*
X98865194Y-135421831D01*
X98873145Y-135425950D01*
G37*
%TD.AperFunction*%
%TD*%
%TA.AperFunction,Conductor*%
%TO.N,/USB 2.0 & 3.0/CON_USB3_SSTX_N*%
G36*
X93177213Y-134986569D02*
G01*
X93331535Y-135137290D01*
X93395354Y-135200613D01*
X93458413Y-135263182D01*
X93459141Y-135263974D01*
X93562724Y-135387634D01*
X93563333Y-135388428D01*
X93692018Y-135571875D01*
X93693964Y-135580616D01*
X93689159Y-135588172D01*
X93688956Y-135588312D01*
X93207212Y-135911344D01*
X93198432Y-135913105D01*
X93194193Y-135911352D01*
X92711787Y-135588792D01*
X92706814Y-135581345D01*
X92708564Y-135572563D01*
X92709196Y-135571706D01*
X92752007Y-135518975D01*
X92753222Y-135517691D01*
X92811261Y-135465214D01*
X92812433Y-135464285D01*
X92936214Y-135378461D01*
X93036330Y-135308462D01*
X93079319Y-135255897D01*
X93086288Y-135229374D01*
X93083346Y-135200614D01*
X93065009Y-135162348D01*
X93035401Y-135127156D01*
X93032698Y-135118620D01*
X93036081Y-135111353D01*
X93160768Y-134986666D01*
X93169040Y-134983240D01*
X93177213Y-134986569D01*
G37*
%TD.AperFunction*%
%TD*%
%TA.AperFunction,Conductor*%
%TO.N,/USB 2.0 & 3.0/CON_USB3_SSRX_P*%
G36*
X97542428Y-135423575D02*
G01*
X97543307Y-135424224D01*
X97623513Y-135489458D01*
X97624541Y-135490401D01*
X97699090Y-135567472D01*
X97774709Y-135643781D01*
X97774712Y-135643783D01*
X97838097Y-135682566D01*
X97838099Y-135682567D01*
X97838101Y-135682568D01*
X97868175Y-135687644D01*
X97899827Y-135682921D01*
X97939131Y-135663532D01*
X97974105Y-135634133D01*
X97982643Y-135631434D01*
X97989906Y-135634817D01*
X98114388Y-135759299D01*
X98117815Y-135767572D01*
X98114388Y-135775845D01*
X98114280Y-135775952D01*
X97989242Y-135897788D01*
X97905916Y-135979218D01*
X97905915Y-135979219D01*
X97815502Y-136083397D01*
X97815488Y-136083415D01*
X97705448Y-136239053D01*
X97697874Y-136243829D01*
X97689411Y-136242037D01*
X97209048Y-135922202D01*
X97204062Y-135914766D01*
X97205793Y-135905983D01*
X97526200Y-135426796D01*
X97533646Y-135421825D01*
X97542428Y-135423575D01*
G37*
%TD.AperFunction*%
%TD*%
%TA.AperFunction,Conductor*%
%TO.N,/USB 2.0 & 3.0/CON_USB4_D_N*%
G36*
X94296723Y-133129956D02*
G01*
X94300118Y-133137361D01*
X94312840Y-133308467D01*
X94321575Y-133337255D01*
X94351728Y-133436632D01*
X94413442Y-133535381D01*
X94495435Y-133629069D01*
X94559304Y-133699828D01*
X94559901Y-133700544D01*
X94691286Y-133871760D01*
X94693604Y-133880410D01*
X94689127Y-133888165D01*
X94688518Y-133888602D01*
X94206513Y-134211634D01*
X94197732Y-134213393D01*
X94193485Y-134211634D01*
X93711341Y-133888510D01*
X93706377Y-133881058D01*
X93708136Y-133872277D01*
X93708462Y-133871815D01*
X93809515Y-133736422D01*
X93810128Y-133735669D01*
X93841879Y-133699828D01*
X93904559Y-133629072D01*
X93955048Y-133573249D01*
X94033930Y-133464852D01*
X94061031Y-133406191D01*
X94081411Y-133337253D01*
X94095776Y-133243280D01*
X94100214Y-133137737D01*
X94103986Y-133129616D01*
X94111904Y-133126529D01*
X94288450Y-133126529D01*
X94296723Y-133129956D01*
G37*
%TD.AperFunction*%
%TD*%
%TA.AperFunction,Conductor*%
%TO.N,/USB 2.0 & 3.0/CON_USB3_SSTX_P*%
G36*
X91227138Y-135312612D02*
G01*
X91345964Y-135324625D01*
X91349274Y-135324960D01*
X91351133Y-135325302D01*
X91459023Y-135354286D01*
X91460048Y-135354613D01*
X91557765Y-135390782D01*
X91557924Y-135390841D01*
X91591507Y-135403826D01*
X91591510Y-135403827D01*
X91591513Y-135403828D01*
X91609526Y-135409337D01*
X91718228Y-135442583D01*
X91752135Y-135443552D01*
X91819946Y-135445492D01*
X91819946Y-135445491D01*
X91819950Y-135445492D01*
X91870735Y-135433045D01*
X91923546Y-135409338D01*
X91983068Y-135369613D01*
X92032761Y-135325302D01*
X92038239Y-135320417D01*
X92046695Y-135317468D01*
X92054299Y-135320876D01*
X92179012Y-135445589D01*
X92182439Y-135453862D01*
X92179360Y-135461772D01*
X92067168Y-135584049D01*
X92067159Y-135584061D01*
X91987979Y-135692677D01*
X91934432Y-135790029D01*
X91891571Y-135886761D01*
X91891542Y-135886825D01*
X91830136Y-136023199D01*
X91829574Y-136024290D01*
X91705136Y-136237617D01*
X91698008Y-136243037D01*
X91689135Y-136241828D01*
X91688546Y-136241461D01*
X91203343Y-135918404D01*
X91198356Y-135910966D01*
X91198349Y-135910932D01*
X91085443Y-135339179D01*
X91087202Y-135330400D01*
X91094654Y-135325436D01*
X91095777Y-135325270D01*
X91224838Y-135312610D01*
X91227138Y-135312612D01*
G37*
%TD.AperFunction*%
%TD*%
%TA.AperFunction,Conductor*%
%TO.N,/USB 2.0 & 3.0/CON_USB4_D_P*%
G36*
X96296723Y-133129956D02*
G01*
X96300118Y-133137361D01*
X96312840Y-133308467D01*
X96321575Y-133337255D01*
X96351728Y-133436632D01*
X96413442Y-133535381D01*
X96495435Y-133629069D01*
X96559304Y-133699828D01*
X96559901Y-133700544D01*
X96691286Y-133871760D01*
X96693604Y-133880410D01*
X96689127Y-133888165D01*
X96688518Y-133888602D01*
X96206513Y-134211634D01*
X96197732Y-134213393D01*
X96193485Y-134211634D01*
X95711341Y-133888510D01*
X95706377Y-133881058D01*
X95708136Y-133872277D01*
X95708462Y-133871815D01*
X95809515Y-133736422D01*
X95810128Y-133735669D01*
X95841879Y-133699828D01*
X95904559Y-133629072D01*
X95955048Y-133573249D01*
X96033930Y-133464852D01*
X96061031Y-133406191D01*
X96081411Y-133337253D01*
X96095776Y-133243280D01*
X96100214Y-133137737D01*
X96103986Y-133129616D01*
X96111904Y-133126529D01*
X96288450Y-133126529D01*
X96296723Y-133129956D01*
G37*
%TD.AperFunction*%
%TD*%
%TA.AperFunction,Conductor*%
%TO.N,GND*%
G36*
X108437183Y-95988907D02*
G01*
X108448996Y-95998996D01*
X108601004Y-96151004D01*
X108628781Y-96205521D01*
X108630000Y-96221008D01*
X108630000Y-100771000D01*
X108611093Y-100829191D01*
X108561593Y-100865155D01*
X108531000Y-100870000D01*
X105201008Y-100870000D01*
X105142817Y-100851093D01*
X105131004Y-100841004D01*
X104958996Y-100668996D01*
X104931219Y-100614479D01*
X104930000Y-100598992D01*
X104930000Y-96069000D01*
X104948907Y-96010809D01*
X104998407Y-95974845D01*
X105029000Y-95970000D01*
X108378992Y-95970000D01*
X108437183Y-95988907D01*
G37*
%TD.AperFunction*%
%TD*%
%TA.AperFunction,Conductor*%
%TO.N,Net-(U6-LED2)*%
G36*
X139563705Y-142744892D02*
G01*
X139564315Y-142745720D01*
X140081642Y-143518491D01*
X140083396Y-143527273D01*
X140081642Y-143531509D01*
X139564196Y-144304456D01*
X139556746Y-144309424D01*
X139547964Y-144307670D01*
X139547315Y-144307200D01*
X139429035Y-144215198D01*
X139427787Y-144214073D01*
X139330953Y-144113302D01*
X139330044Y-144112235D01*
X139254989Y-144012601D01*
X139254515Y-144011924D01*
X139192429Y-143916118D01*
X139192385Y-143916048D01*
X139154744Y-143857050D01*
X139066888Y-143742534D01*
X139066887Y-143742533D01*
X138971806Y-143667583D01*
X138971803Y-143667582D01*
X138913130Y-143639879D01*
X138844021Y-143618969D01*
X138844018Y-143618968D01*
X138756732Y-143604870D01*
X138756734Y-143604870D01*
X138664404Y-143600524D01*
X138656301Y-143596712D01*
X138653254Y-143588837D01*
X138653254Y-143461086D01*
X138656681Y-143452813D01*
X138664323Y-143449403D01*
X138769473Y-143443741D01*
X138865194Y-143425717D01*
X138943693Y-143397060D01*
X139008243Y-143358902D01*
X139062117Y-143312374D01*
X139108590Y-143258606D01*
X139192428Y-143133881D01*
X139280389Y-143001402D01*
X139281257Y-143000258D01*
X139401545Y-142860675D01*
X139403057Y-142859213D01*
X139547257Y-142743115D01*
X139555848Y-142740597D01*
X139563705Y-142744892D01*
G37*
%TD.AperFunction*%
%TD*%
%TA.AperFunction,Conductor*%
%TO.N,VDC*%
G36*
X177204973Y-102017055D02*
G01*
X177225615Y-102033689D01*
X181432472Y-106240546D01*
X181465957Y-106301869D01*
X181468791Y-106328227D01*
X181468791Y-117819516D01*
X181449106Y-117886555D01*
X181432472Y-117907197D01*
X181017605Y-118322064D01*
X180956282Y-118355549D01*
X180929924Y-118358383D01*
X176755326Y-118358383D01*
X176688287Y-118338698D01*
X176667645Y-118322064D01*
X175988861Y-117643280D01*
X175955376Y-117581957D01*
X175952542Y-117555599D01*
X175952542Y-116849101D01*
X175972227Y-116782062D01*
X175988861Y-116761420D01*
X176106680Y-116643601D01*
X176106680Y-113233303D01*
X175759950Y-112886573D01*
X175726465Y-112825250D01*
X175723631Y-112798892D01*
X175723631Y-110568995D01*
X178699499Y-110568995D01*
X178726418Y-110704322D01*
X178726421Y-110704332D01*
X178779221Y-110831804D01*
X178779228Y-110831817D01*
X178855885Y-110946541D01*
X178855888Y-110946545D01*
X178953454Y-111044111D01*
X178953458Y-111044114D01*
X179068182Y-111120771D01*
X179068195Y-111120778D01*
X179195667Y-111173578D01*
X179195672Y-111173580D01*
X179195676Y-111173580D01*
X179195677Y-111173581D01*
X179331004Y-111200500D01*
X179331007Y-111200500D01*
X179468995Y-111200500D01*
X179560041Y-111182389D01*
X179604328Y-111173580D01*
X179731811Y-111120775D01*
X179846542Y-111044114D01*
X179944114Y-110946542D01*
X180020775Y-110831811D01*
X180073580Y-110704328D01*
X180100500Y-110568993D01*
X180100500Y-110431007D01*
X180100500Y-110431004D01*
X180073581Y-110295677D01*
X180073580Y-110295676D01*
X180073580Y-110295672D01*
X180073578Y-110295667D01*
X180020778Y-110168195D01*
X180020771Y-110168182D01*
X179944114Y-110053458D01*
X179944111Y-110053454D01*
X179846545Y-109955888D01*
X179846541Y-109955885D01*
X179731817Y-109879228D01*
X179731804Y-109879221D01*
X179604332Y-109826421D01*
X179604322Y-109826418D01*
X179468995Y-109799500D01*
X179468993Y-109799500D01*
X179331007Y-109799500D01*
X179331005Y-109799500D01*
X179195677Y-109826418D01*
X179195667Y-109826421D01*
X179068195Y-109879221D01*
X179068182Y-109879228D01*
X178953458Y-109955885D01*
X178953454Y-109955888D01*
X178855888Y-110053454D01*
X178855885Y-110053458D01*
X178779228Y-110168182D01*
X178779221Y-110168195D01*
X178726421Y-110295667D01*
X178726418Y-110295677D01*
X178699500Y-110431004D01*
X178699500Y-110431007D01*
X178699500Y-110568993D01*
X178699500Y-110568995D01*
X178699499Y-110568995D01*
X175723631Y-110568995D01*
X175723631Y-107950379D01*
X175740246Y-107888376D01*
X175748205Y-107874590D01*
X175748207Y-107874587D01*
X175775500Y-107772727D01*
X175775500Y-107667273D01*
X175748207Y-107565413D01*
X175740242Y-107551618D01*
X175723631Y-107489620D01*
X175723631Y-102121370D01*
X175743316Y-102054331D01*
X175796120Y-102008576D01*
X175847631Y-101997370D01*
X177137934Y-101997370D01*
X177204973Y-102017055D01*
G37*
%TD.AperFunction*%
%TD*%
M02*
